<mxfile host="app.diagrams.net" agent="Mozilla/5.0 (Macintosh; Intel Mac OS X 10_15_7) AppleWebKit/537.36 (KHTML, like Gecko) Chrome/130.0.0.0 Safari/537.36" version="24.7.16">
  <diagram name="第 1 页" id="PVDO99pXzk9m_0z1PFU8">
    <mxGraphModel dx="658" dy="773" grid="1" gridSize="10" guides="1" tooltips="1" connect="1" arrows="1" fold="1" page="1" pageScale="1" pageWidth="1169" pageHeight="827" math="0" shadow="0">
      <root>
        <mxCell id="0" />
        <mxCell id="1" parent="0" />
        <mxCell id="0_n0GRW0i9C8n6efJb2y-31" style="edgeStyle=orthogonalEdgeStyle;rounded=0;orthogonalLoop=1;jettySize=auto;html=1;shape=flexArrow;sketch=1;curveFitting=1;jiggle=2;fillColor=#fff2cc;strokeColor=#d6b656;" edge="1" parent="1" source="0_n0GRW0i9C8n6efJb2y-4">
          <mxGeometry relative="1" as="geometry">
            <mxPoint x="270" y="310" as="targetPoint" />
          </mxGeometry>
        </mxCell>
        <mxCell id="0_n0GRW0i9C8n6efJb2y-4" value="SQLLoader" style="rounded=1;whiteSpace=wrap;html=1;fontSize=18;fontFamily=Comic Sans MS;sketch=1;curveFitting=1;jiggle=2;fillColor=#fff2cc;strokeColor=#d6b656;" vertex="1" parent="1">
          <mxGeometry x="210" y="340" width="120" height="40" as="geometry" />
        </mxCell>
        <mxCell id="0_n0GRW0i9C8n6efJb2y-5" value="SQLWriter" style="rounded=1;whiteSpace=wrap;html=1;fontSize=18;fontFamily=Comic Sans MS;sketch=1;curveFitting=1;jiggle=2;fillColor=#fff2cc;strokeColor=#d6b656;" vertex="1" parent="1">
          <mxGeometry x="410" y="340" width="120" height="40" as="geometry" />
        </mxCell>
        <mxCell id="0_n0GRW0i9C8n6efJb2y-9" value="" style="group;fontFamily=Comic Sans MS;sketch=1;curveFitting=1;jiggle=2;" vertex="1" connectable="0" parent="1">
          <mxGeometry x="210" y="420" width="120" height="50" as="geometry" />
        </mxCell>
        <mxCell id="0_n0GRW0i9C8n6efJb2y-7" value="" style="shape=mxgraph.bpmn.data;labelPosition=center;verticalLabelPosition=bottom;align=center;verticalAlign=top;size=15;html=1;fontFamily=Comic Sans MS;sketch=1;curveFitting=1;jiggle=2;fillColor=#ffe6cc;strokeColor=#d79b00;" vertex="1" parent="0_n0GRW0i9C8n6efJb2y-9">
          <mxGeometry width="120" height="40" as="geometry" />
        </mxCell>
        <mxCell id="0_n0GRW0i9C8n6efJb2y-8" value="&lt;span style=&quot;font-size: 18px;&quot;&gt;input yml&lt;/span&gt;" style="text;html=1;align=center;verticalAlign=middle;whiteSpace=wrap;rounded=0;fontFamily=Comic Sans MS;sketch=1;curveFitting=1;jiggle=2;" vertex="1" parent="0_n0GRW0i9C8n6efJb2y-9">
          <mxGeometry y="5" width="120" height="30" as="geometry" />
        </mxCell>
        <mxCell id="0_n0GRW0i9C8n6efJb2y-10" value="" style="group;fontFamily=Comic Sans MS;sketch=1;curveFitting=1;jiggle=2;" vertex="1" connectable="0" parent="1">
          <mxGeometry x="410" y="420" width="120" height="50" as="geometry" />
        </mxCell>
        <mxCell id="0_n0GRW0i9C8n6efJb2y-11" value="" style="shape=mxgraph.bpmn.data;labelPosition=center;verticalLabelPosition=bottom;align=center;verticalAlign=top;size=15;html=1;fontFamily=Comic Sans MS;sketch=1;curveFitting=1;jiggle=2;fillColor=#ffe6cc;strokeColor=#d79b00;" vertex="1" parent="0_n0GRW0i9C8n6efJb2y-10">
          <mxGeometry width="120" height="40" as="geometry" />
        </mxCell>
        <mxCell id="0_n0GRW0i9C8n6efJb2y-12" value="&lt;span style=&quot;font-size: 18px;&quot;&gt;output yml&lt;/span&gt;" style="text;html=1;align=center;verticalAlign=middle;whiteSpace=wrap;rounded=0;fontFamily=Comic Sans MS;sketch=1;curveFitting=1;jiggle=2;" vertex="1" parent="0_n0GRW0i9C8n6efJb2y-10">
          <mxGeometry y="5" width="120" height="30" as="geometry" />
        </mxCell>
        <mxCell id="0_n0GRW0i9C8n6efJb2y-14" value="" style="group;fontFamily=Comic Sans MS;sketch=1;curveFitting=1;jiggle=2;" vertex="1" connectable="0" parent="1">
          <mxGeometry x="210" y="160" width="320" height="57.06" as="geometry" />
        </mxCell>
        <mxCell id="0_n0GRW0i9C8n6efJb2y-6" value="AbstartModel" style="rounded=1;whiteSpace=wrap;html=1;fontSize=18;fontFamily=Comic Sans MS;sketch=1;curveFitting=1;jiggle=2;fillColor=#d5e8d4;strokeColor=#82b366;" vertex="1" parent="0_n0GRW0i9C8n6efJb2y-14">
          <mxGeometry width="320" height="50" as="geometry" />
        </mxCell>
        <mxCell id="0_n0GRW0i9C8n6efJb2y-3" value="" style="outlineConnect=0;fontColor=#232F3E;gradientColor=none;fillColor=#01A88D;strokeColor=none;dashed=0;verticalLabelPosition=bottom;verticalAlign=top;align=center;html=1;fontSize=12;fontStyle=0;aspect=fixed;pointerEvents=1;shape=mxgraph.aws4.sagemaker_model;fontFamily=Comic Sans MS;" vertex="1" parent="0_n0GRW0i9C8n6efJb2y-14">
          <mxGeometry x="41" y="6" width="38" height="38" as="geometry" />
        </mxCell>
        <mxCell id="0_n0GRW0i9C8n6efJb2y-17" value="SQLEntries" style="rounded=1;whiteSpace=wrap;html=1;fontSize=18;fontFamily=Comic Sans MS;sketch=1;curveFitting=1;jiggle=2;fillColor=#fff2cc;strokeColor=#d6b656;" vertex="1" parent="1">
          <mxGeometry x="210" y="250" width="120" height="56" as="geometry" />
        </mxCell>
        <mxCell id="0_n0GRW0i9C8n6efJb2y-32" style="edgeStyle=orthogonalEdgeStyle;rounded=0;orthogonalLoop=1;jettySize=auto;html=1;entryX=0.5;entryY=0;entryDx=0;entryDy=0;shape=flexArrow;sketch=1;curveFitting=1;jiggle=2;fillColor=#fff2cc;strokeColor=#d6b656;" edge="1" parent="1" source="0_n0GRW0i9C8n6efJb2y-18" target="0_n0GRW0i9C8n6efJb2y-5">
          <mxGeometry relative="1" as="geometry" />
        </mxCell>
        <mxCell id="0_n0GRW0i9C8n6efJb2y-18" value="Modified&lt;div&gt;SQLEntries&lt;/div&gt;" style="rounded=1;whiteSpace=wrap;html=1;fontSize=18;fontFamily=Comic Sans MS;sketch=1;curveFitting=1;jiggle=2;fillColor=#fff2cc;strokeColor=#d6b656;" vertex="1" parent="1">
          <mxGeometry x="410" y="250" width="120" height="56" as="geometry" />
        </mxCell>
        <mxCell id="0_n0GRW0i9C8n6efJb2y-22" value="" style="endArrow=none;html=1;rounded=0;sketch=1;curveFitting=1;jiggle=2;dashed=1;strokeWidth=2;" edge="1" parent="1">
          <mxGeometry width="50" height="50" relative="1" as="geometry">
            <mxPoint x="120" y="400" as="sourcePoint" />
            <mxPoint x="600" y="400" as="targetPoint" />
          </mxGeometry>
        </mxCell>
        <mxCell id="0_n0GRW0i9C8n6efJb2y-23" value="Disk" style="text;html=1;align=center;verticalAlign=middle;whiteSpace=wrap;rounded=0;fontSize=18;fontFamily=Comic Sans MS;" vertex="1" parent="1">
          <mxGeometry x="120" y="420" width="60" height="30" as="geometry" />
        </mxCell>
        <mxCell id="0_n0GRW0i9C8n6efJb2y-24" value="Memory" style="text;html=1;align=center;verticalAlign=middle;whiteSpace=wrap;rounded=0;fontSize=18;fontFamily=Comic Sans MS;" vertex="1" parent="1">
          <mxGeometry x="120" y="263" width="60" height="30" as="geometry" />
        </mxCell>
        <mxCell id="0_n0GRW0i9C8n6efJb2y-29" style="edgeStyle=orthogonalEdgeStyle;rounded=0;orthogonalLoop=1;jettySize=auto;html=1;entryX=0.5;entryY=1;entryDx=0;entryDy=0;shape=flexArrow;sketch=1;curveFitting=1;jiggle=2;fillColor=#ffe6cc;strokeColor=#d79b00;" edge="1" parent="1" source="0_n0GRW0i9C8n6efJb2y-7" target="0_n0GRW0i9C8n6efJb2y-4">
          <mxGeometry relative="1" as="geometry" />
        </mxCell>
        <mxCell id="0_n0GRW0i9C8n6efJb2y-30" style="edgeStyle=orthogonalEdgeStyle;rounded=0;orthogonalLoop=1;jettySize=auto;html=1;entryX=0.5;entryY=1;entryDx=0;entryDy=0;shape=flexArrow;sketch=1;curveFitting=1;jiggle=2;fillColor=#ffe6cc;strokeColor=#d79b00;startArrow=block;endArrow=none;endFill=0;" edge="1" parent="1" source="0_n0GRW0i9C8n6efJb2y-12" target="0_n0GRW0i9C8n6efJb2y-5">
          <mxGeometry relative="1" as="geometry" />
        </mxCell>
        <mxCell id="0_n0GRW0i9C8n6efJb2y-33" style="edgeStyle=orthogonalEdgeStyle;rounded=0;orthogonalLoop=1;jettySize=auto;html=1;entryX=0.188;entryY=1.002;entryDx=0;entryDy=0;entryPerimeter=0;shape=flexArrow;sketch=1;curveFitting=1;jiggle=2;fillColor=#d5e8d4;strokeColor=#82b366;" edge="1" parent="1" source="0_n0GRW0i9C8n6efJb2y-17" target="0_n0GRW0i9C8n6efJb2y-6">
          <mxGeometry relative="1" as="geometry" />
        </mxCell>
        <mxCell id="0_n0GRW0i9C8n6efJb2y-34" style="edgeStyle=orthogonalEdgeStyle;rounded=0;orthogonalLoop=1;jettySize=auto;html=1;entryX=0.5;entryY=0;entryDx=0;entryDy=0;shape=flexArrow;sketch=1;curveFitting=1;jiggle=2;fillColor=#d5e8d4;strokeColor=#82b366;" edge="1" parent="1" source="0_n0GRW0i9C8n6efJb2y-6" target="0_n0GRW0i9C8n6efJb2y-18">
          <mxGeometry relative="1" as="geometry">
            <Array as="points">
              <mxPoint x="470" y="210" />
              <mxPoint x="470" y="210" />
            </Array>
          </mxGeometry>
        </mxCell>
        <mxCell id="0_n0GRW0i9C8n6efJb2y-35" value="" style="endArrow=none;html=1;rounded=0;sketch=1;curveFitting=1;jiggle=2;dashed=1;strokeWidth=2;" edge="1" parent="1">
          <mxGeometry width="50" height="50" relative="1" as="geometry">
            <mxPoint x="120" y="150" as="sourcePoint" />
            <mxPoint x="600" y="150" as="targetPoint" />
          </mxGeometry>
        </mxCell>
        <mxCell id="0_n0GRW0i9C8n6efJb2y-36" value="" style="shape=image;verticalLabelPosition=bottom;labelBackgroundColor=default;verticalAlign=top;aspect=fixed;imageAspect=0;image=data:image/png,iVBORw0KGgoAAAANSUhEUgAAASwAAAA7CAYAAADB2bfiAAAACXBIWXMAABYlAAAWJQFJUiTwAAAAAXNSR0IArs4c6QAAAARnQU1BAACxjwv8YQUAAB0QSURBVHgB7V17lBTVmf9ud480yqPJEmLkVSBGFGGGqIAi0GNUQFEg0Y0mMUBeiw8Oes5u1rNHd4aNqHm4iiQbMGfj4APcNZvwDmhOaBhAczZHhlf2JOcYemYwkj3umR78Q5Tpunu/+6i6VX2ru7pnemDG+h2K7q7H7dt3qn71fb/7u7cIlIG6Gem0DTCHUFpHxWJR2wb2yrZS/mrjeyrXUSpfga23+WfbWe/dhy82W8DGV9xAxGfPPln2X5ZtbqEkv+X9U6cyECFChE8MSKkd6tLpFHwcW8lYZBHjmDpJKBrZIPHgni7xqPW27RKZICvbJR9tm/84wVHa/lg8I0bb2WarMrKxGDx79uxHW3K5XBYiRIjQr1GUsDCiIrHYCyyKskSghCRhe4jKQ1gYbfG3thY12bwsGhRVFXy2C9Y7rxh/2e4+WHnbzvPIi31clcv9XxNEiBCh3yIetOHzM298BghZx8gg5RCIBJVRD4+GAJy0TXywvSke35evIA75aKke+IhKleON4DgI1aIruRMjLJsSAsMwAkwOSFrJgcm9ZxggQoQI/Q4FERamgORsPMNIpZaTD66UpGJ7oivqTQVZpCN29ZKVm/bZnkjKTRG16KtAs3JTQFvqWiKS80doWlQGNPvx2Y/rGWdlIUKECP0KMf8K0oVkZdd6IiVOJhhNyfcAhWSEn2ydrPB4m/rTPJUmKjFeERlo5YnCqEev4mRFvWQFfrLipEqtmnjNnhQDRIgQoV/BQ1iYBtK8XatSPg6qdCMZYcl1LhFpkZMeHYEiINtHUl69SvUg2hrpqH21aI3qkRh400WH5Fydy7bOnvnoVxAhQoR+BUfDqrv+xqXsgn/K0ZCciMohB6lDcUqQvXcuwYiDpG0BHBIjui7lbvf09IGiR28aSD3RldvDqEd3IMiMANFJjteQskgrEe/syuffgggRIvQLuBEWpQ1UIwTqRFayd1DpXYpQPFoT8H25jUGSkiQTMKVxnt5C8EZVKuKiBi+X4CJJVlxP46RKZE+hZ0Gw+jSwvDBKDSNE6CfgEZaMrpbie6FHeYVxIjaAkyoqUvCI39xYRajc34nQ3J5CT/roRFue9NBXviG11E2o3ohN7Cc6Cpzjk2ch9lGe2hmIECFCnwfnoroZ9SfYJW7paSDqVcLnJH1WKoWTJOSSEacM4iUiQSiDBw+CW276Alx5xUS4gi2jRo0U3yozxJMnT8KxY8fh2PHjcPDgm9Da1uYlK8frxSMqJWQRD0lSIHoqqLnlZTl27mPbHsc25iBChAh9GgTNoeyy3kM1LUqkZz7rgu36n9DCIDhMkgp4e/xGjrwEVq54AO784iIoB0he65//Gby66VVZvu2NvqgvtXRJU4u2ROSnLBNShK/vAshAhAgR+jTiI0ZZS9jFnnYd7FRLqXAXXRdyNSvdziAyMRtuvulGmFo7BdpPvguv/eKXsPv1N+Cdd/4MH330MYz49HAYMGBA0cqMGDECbp0/D+6558uQ6+iEo0ePOqmfrk3pZAVavbzvQTe0drKa7oIIESL0aZDa6XP2sAgk7ehFUmwHbaiNeNXFcdAiKxZRXXIJ/ODJx2HG9Gudgv/wh/+B42zZxUjrzTffgtOdnTBjxjS4bsYMtkyH66+/rmTl2tra4fbb74DWbJZ/tm3VU+lLTRV52tQz3hBAcG6MkKxMCyNEiNCHQaZMm32CqlkXClI/NQ7QNNxG6ERXTrwc1v3bczCKpYHFgKR1UC4HDhyAIYOHMNKaDvPmzoOrrrqSLVcZj+tkRHfffffD9m3bNc1KH8cooy6t/mhXJVJXA0LYPwKMsEoO9I4QIcL5DTL52huo7kBH2FoPnytku2SAx+H7K6+4HDa++HMYMmQIlIPTp0/DASay/3rnr+HosWMs9TsGo0ePgpks6po/fz5MnnwVjBkzxnPM8uXL4ZWXXsZvJwWGUVs3sIKTMsZiwrWBhDUwnx+Wq1x4T8klC72IBEA60t56D9je/nWs/VugD3TYBNQ9A+cIPXHumn4TuerqmdSNrHCVz2aghG8AtweOisiqErIyoa29HQ7sPwD7+bIfWltbecQ164aZcOtttzICmww40ubuL98N27ZuBdc0antsEYrEMJRCkmKM5b5PJMZ1Y3yhxRrvBHttZH+EVdALqAFYyX7is10hpgCK0CNQf2M/+kKHjbHu5/DcseKsIy/P2g4qv8kbfxOZ9PnrKdXMoJ7oxaae3kLl0ULNauNLP2dp4EjoaWAKOOuG2Zy0dOPoDYy8Zs2aBatXr3YJyrFcuPYK9RciMhXkZIVLPN4ThIXIsBNhGVQv2sLvegHk3SUirF5DRFg9BEZWTeyLl7DrsSkvrpVKYPxNMerxV2kDkSUp8OHLyi4g00P0V731u/+Gk6w3sCfR1tbmISs9ctq3rxlWP/64a7mwtR5DsTh/HD9ZEdKjf7c03j3YUp5nIwSwTLYcAkMoHCFCH4GFZIVv2OvSRA+fywm/r0kRgJhKBnDhV7vStdC6MGTIYHh2zVqWyp3kZtAZ06fB3JtvYr1/0ypOETGyWnDb7Zys3Lq4xtEC46puKkV3vUZMOlnF5DoKPQdWosVefpXouRQxxcpqYK8PQYQIfRjshtvoW4XndQZ6CGRi3TQK1GcRsH2poebNat7zupMKYoT15lu/c6wLSDrXTZ8OkyZNhLm33BLKuqBjf/N+7r3atn07NO/dq+wVWAGiNCuXvNxeQk5JWlTlEBdqWPK9TUhPpYQesGpku5urY8QmSbAAUUrYa4hSwirVAyprQ7OGNbH2WlrgvVKalUoTxSv90hcXkx99f3XgNyBpHTv+B/j1rt1w8OBBbl2YNOkKmDd3LsyceV2gdcGEXC4HR48c5SL7PkZehw8fBnc4jkj/1FhEjKKQnKTnyiUvEKSFYKRSFcJS1WXfteosE8mhDKCwzlq3kRQZoF3GSZdKsqVLEl8P926lWF0t1r4pVpncWVH2eYukRv5nRBuEaYdzRVg90bbnBWEp7cqwCXXfeigPZsK6fPLVom/Qb23QdCIlcL/6ygae/oUBWhdwqA2SF/b8HTt6jKWPoxhxXc8jLxTR/daFYmjNtjLiysBeRl57MxnIZrNuD6D+ygjKIS21ni1dlFaTsDikyIgpYrbErin2x32BhNDBSp10rJyl8iRJGza3sG1N7CLYAuVHgJimYk/l0oDoL8O2bWC/t6lIGdhuln+lRgD8O9hrmsr9iKjn4S5B/lkIB/yeh1gZC011peKG0iLrmwkotyRhoR6DbW3LtkaCoYJgtrByN0N49ETb6qhLCO3Tg14mrFLXSLnEby4PCetzkz5PL5s0lU64opZeypbxEyfT8ZdPpuM+N4lal11Jx146kc6c/QXaHbS2tdEdO3bSBx5YQWunTKVDhw6jM2fOosuX30e3bdtGOzo6yiqv5dAhelN9Pb0gFqMD4nGaTCT4MvCCC+iFAwbQi9gyKJnky+ALL6TJZNKCyoGNR8MscdHIVlBBCSHanwhbXk+Ug/vVlKGPYeTHjuno7u9FjS/oN4X8jmdK1RX3CduW2tJgKCrob5yW2/Z05+9eadsmzDei0Oejr35VA0ZXJeqwB8qD8TfGqC62424yzbI9UxcDTNeG3VSCMaNHw623zocf//g5aDn8NjQ37+MG0Y0vvwL33H0PjB45GubPncd6AlezHsF9JcurrauDKWwBdVFraaD6DMqLRXrvRkPkncF0UcgLMFCvCosaEZWELoeIlOOZMASAkR/6v0jIecTU760xpwJGYNuE/I6Hip3oCRHdVNJR0RiWYKjQGEv23BKpRRYpM1VJ24IgygY4v2GR0n//dKIHegxjXLNCB7u0NNhK2LbdFFG42idCT2Io603c39zsEiM7NZr3NcMTjz8O826+BS4eMYLedeedsPa557h+ZUJ6zhx0sxMlrvNXmRIq8R0VrN4kLA2NCfcEtuT7bvcCKkMpVIaHipEWbsOuaKgAmA6XQVqNEB54ohfsLy/iWqgQIQhG7fdCmeRtnJpbSgBLoTI0lnND6G0khG8wDLpNvDFbRVYgrQvutMTS2S70rTff/B3sfv030N5+EnoCTz75JNOhWkENp7HFwGWqvi/XkSNbN2+Gv3/4Ybh26lS4bNw4+NayZfDihg3OYGgeYekCu1zA4MNKQlWwihbXWZRnq9QdOgPh7BGWXd7FbsJDccOFI9d1i1AlkVplHpOjpbUqjChTvuOWFikzC6JNiwrY7OzohDI7JkLUtc7fvkiupJu+vUratjcgo6Z0yN3T8cpJmyMGul0A3LSQetzkFDpPd0Ljqu/BjJmz4eZ5t0FD47/wSfcqheO3cp+wA3wmBp95FaTXCkV2JKtvf+MbcPmECTDtmmvgxyz6cqIplfrpBKY73asAaWkYB0XIhohwudgdehX2oIS4ELjHJagsKgTa+oSoTz0UIVMioiy9HHzfEFAuXtCr2DFTVdkoCIMZmPaEuovKutWz9huGbdhVvB2xJ22p9tkKSIfXdLnlocg7FT+z71oMhYIvCvtpCE9Yq7SyCStzWZH21aMhK4hcy23bMiKZ3kTQ33tNmfuHw6UTpzCB/SpHYLcmXEHHjp9Ix4y/nI62PkdHWRPoqLGX0rb2di52s54/+vzP/p0u/tLf0s9cPIqOuHgkXbT4S3Td+ufp/v0HaDlgURTdtnUb/c63v02nXzuNJmsuoAMSNUxET9AaErPZwl6Js6DAfgET2FFkH1hTQy9EgZ0tKLBfhAL7wIF0EBPYh1x0ER06aBBfUoMH02FDhtBUFUR3/W6RKFNM9wuqceEKNgrUJerQUUQbsILqpIvwQd8tNSLLVHBCpGodAXVOyX0ayxWoi9Rlc6m2gBIRCJYt26MFCok/UMgu0mFhlWqDEm1rvPnUiF6/ouWidUMt8m9RsK++T7IK0VmR37ZHbm8qdd0Ugflv7JDVBNEbOAbJapwgq9GSrEaOGU/b2tqNpHPgwEH66KP/TBcu/CIdPvwzdPz4CfRrX/s63fjKRsqiKFoOsiey9MWmJnrn4sWUpYA0oYhKkhUjKpv3BiJZMZJSZMWJKpm0sTdwsCQsJCpFVsOGDqWpVMqCymGFbHgrRG8JHoc6RyrMH19trxH6UyV//KCLyiGAhKEHLIwoHQuok7rAixDW0mLlFqmPQiqICFErShRPUSwwE4UVgihNdW0MIosSv8UqVm6ptg1Td6gyityg08XqJX9/KV0woJdQSwcRBNwUjWpzYAUBPVXf+94q2Lz5v+Cdd/4Ea9c+x4fnPPX9H0DtFNaTN7kW7lt+P2zfvp2bQYthrDUW7l2yBF775S/hT3/+M/z+7bfh6WeegdnpNAwbNgzTOwImJzu63WNiEI7Hh+X6sar+x5PAFHEpBKQ20g/0cF6kKGVpJ7bhIpQpaVOJQ7NgSDOoV7CuMxyXgRJpqi10FdPvKCqGh/AsHS6xHb8z418p0++l4JLEoYQcQiUvIjVFUOi2JyW8Q10Bv6XLJaS0YXMGqtS2vYV4gIcMpQnNb5U1pbiyc6IivTTGqcp2H3Zq66K7Y2tADet0ycKQqNC68JOfrGU9e4fg8JEWeOSRf4TOzhzcz0hLWRe++w/fDW1dWLFyJbzx29/Cqfffh92/+Q08uGIFzJ4927Uw+PUrtU79QEFc1RGxAtAlxhiO82kch9mFOvVshT187AcMNawrdWFzUIP4rJ1saq4vP7ZAuLK3GNYNK3FYrpvbsY2XhRHAQYjdqJvskZHmoXKEX1raeV6srpZpJQnWqfzfbWpbC84PGLWovO9mnRfEZGqjgo6UMIhROciZqmcQurMfqAn7+HL8+HEoF+hk/8pXvwIbN22EtpNtsHPXTk5UP1m7llsXBg4YALfcdFNR64KO2XPmwA+ffhp2vfEGvPvee/BPjz7qGT+oieyUWxpwWA7p8dkawgKjn6kgxMc1UuDNQg+C/aoO6D7KPmlCYChUH3wMJy2/TevQqhDWhxWhEMWiKyj8eyBZmQT4VCVRFs7WIOZJVxEVaNEVvpNzpQvCugu6A/ReUW2OK1z2ZfZCZs8evm6MZUFdbS3csWgRzGHkNJZ9DiwrlfIMv/EM0ZGpI/8sVoIywPYycl09NAMDq30nKVxnhTgUiHk/ddfLmo5hVG/lIVTZphSlE3oHvJe2xPAkI5QPS95UykrPy0Au4Lsx8stACbD9xsL5CWN0hdaNRHm2BYyyglJfI2LgPNcPP1IPodiagXTnzt3QXTQ3N3vIChw7g6DJtmwWtm7ZAt/55je5dWH6Ndfw9zgA2qR/ofFUDW7m8HuytHSxSj6sXgMxE0sawrm1lxhWtwS8L3aMHxYY9C8CVR0srAPtDivzQjepl2Pn6qWNAe0CTSDG5QURh1XTTV9QCRg9ZmzdwtKH8rZNG9aHkgGqhRLR1RooD2VHWTHn6TLS0U5t9ah5SVySxNra2+CxxxqA9QpCpejoyHlTTicFtR3NSY+Ujhw+TF9+6SV69113wajPfpbpX3PhidWrOfG1tbbyQdVYdcfpLsX1mPqs3O7nJiXsaRjF3YShx9G3vcF0ghGvPmLSq7Br3XgnlUjFg4fNZKD6wJMdyejZuPAnWbgSBV8U9VFHZHrhsi7p9aJi5ssC4qJVniyRmNs23Y22LdVhUW0EalddZUZLEmVpWTw8cR46AaAMnOIpNNrDSHHdpldfhYWLFsO48RPovfcugU2bXhXPDgyJRx97FN7737/Cf/7iNbj36/fC5ClTxAZvOqe/Csi52TGieuqJJ2DB/Pkwa+ZMNeyGOPtjT6H73iPC93V0BTu30Vl9yN+VXyPWI5k1mso7q534XcE9jY06GSgkhOfsUMCdNtsb08/EhfmVp6NE+Kv2FBPTZW+qqV7V1tuCCKaitj3HD5ZoKKFdBelVxVBWlJVwnzZje4foOENzNM2JfX777d/jVDFkx46dsO6n61hP4BE+sHkmI5DbFogHRowdG5x648Mk7li4kC8IdLDjfFfbWCp4hJWF0yQjCCkczKxHTThZoH8fSU7UfasRYbKvJ4UcD4PhzitPIrxg1TQqFhVd/EHAkyqrfc7KdSsNZS+VugSfX4uKFDBVpOxVUGWYxuXJNkAxHS+qLewMzso0OsXqnIqJNCxtKK6qKRYSjPRyLfJvOx/btgi4Y99UN71nEKOsRPk9gLh/E4ToQHGnSAbw2BioNp5QfUaSWL9uPaxe/Ti3LyCQYHCmUEzTHvnuI9DamuWkdcOsG2DB7bfDFBZFIUkFwWLCOi5fXyIkE5YGQjPrSdy2bRu+UhlCFQyzIfoTcbzDcYiH3KD/AE9+dkFuIAH6EhEnSbrYb5berUZD2XjHN84nJVEnv6MY1pQxh1Ol4L8xaKOs/8qYd10gaC9ELGjBiIveSStgl/OlbQOREOecZdiEZJXVPmNHEw4RC7rokbj9N0Y+pCvMAyvIJaMspCQcw8cjE+2BquIz1R/7JUht69bNfAI+EzBKwlkXUChH8uno6OC+qQV33MHIazLMSaehHCB57WDkhann/gMHvL2CxJ1VlOtXMo2MGVJMSsi4U6dOZaEyGCcTQ12kp04iKWa+4F9vmIQNQ2iMsuqgTNDS0zkXna65RNkb8oWDfhvBoHmUmljOdBx1x212q57FykxUNuNo2OO6U+dSM3ZWe8bRoPO/kunBU0EprxxPmi32nWgcJVL9Jp5H0nPy0gdBu+/vv+9+itGWCRhRPfDgA7Dr9d3wl7+egt1vvMG1qhc3NMHNN94IIz71Kbhz8WLPrAvFMIuR3VM//CHs2LUL2k6e5NGaHj1pZEViup6lR179Q3RXwDuY8neVg0yIk6tSb9OafHV72/zgREPDmUeDcDhf/rS93UHFbdvVu/UsQDxAByXCAJuF8sAHfJs2JEIM7o4B1eZx1/QqkDoWeHxTYr/Wtjby1a98FcJg9pzZ8KN/fRpWrFjBi8KIC/UqNevCxMsug+9861uB1gUd33/yST71si7Sa5GVcVoZUt3pZc4Z0N8liStTYlfUtJZ1hb8TlkMGGRCRRI94zcpFXkxJPU72AGbCHCN/06pqGHlDoM+0rQbLJEHIDoBGqAD4dwv4/SUn+RMalqqCJq6LzkH3gRRK21IEhs8JXP53y2Hd+nUQBmgCFTziPj4eF5xm5pWXXoJXXn6Zf8YIbdacObBgwQIeXSkgWa376U/FsQDuY+hZzyC+xlx9i4rV3u/Jffhhd8yBOWJO/bLQQyBCJG6C8tAiiciSGgkuY9FkiqIzW5eptMdOpro4KV8de5+OiRN3KCu7VaYCKCQXbVO2X0usgpQ54LhcqbqCSJfr2G+viwnxeqwsj9eZ/ZbMmeC/WdDfuOQwonKPU/XFi1PWtey2DVmHbiMmNKeMYVO5Eb4HRNxkGgyb0vL7jL+JfObikSfYq+V4r9xHfCEEA1DtkfC2rdkfAG677VZY//zzMDRVvHf4cEsLTLv66kJ3ui6Ok4IhNvxpz9jruGnTJs84QWUKBfD1KGpivJ4OnvzLX/pVXhghwicR8UGDhixiZGWBZhSVw3OI3/muojGdwP74xz/CL157jYnqtxftDUwmk3xBAuHWBVI4BtBPPBg1tbN9jx075uwf8xFaTNOy/JqVGkvIlpbTH3ywHiJEiNCnQT796c8+w6hnJRfdNUuDEtnxs63NAKqevGzbedmrKJ8VyN4/uOJBPptCsTGACNSqsAcRrQsHWC+gNJ9SfYoYREw8a5D6e/5MkZV8LiGNaTYIUGVR2tT+7rvLIEKECH0aZPjFF6eZgruHgtsb6BKTHLbjsTa4hlJtTCB+JDg1DaZvqD091tDA/VVhwIfZNDfzObN2sMWvP/l8Vm5khXYFgIIIjR+rSE/suyzb3t4EESJE6NPgV/ffDB+BDwVM6WQFzuBnqVk5lgdwbQ4gtC62ozvbg1pQQK+thXR9PZ8WBqOu2lrvwH4U3I8eOcIXJKwD6LPSIylDrx/C5LPyk5W2b67zgw/G5Up1QUaIEOG8B7+qPzV8eAPNYxelSzrqsV8I9SguW3O9e3Qtx1SqJv8TqVmQzQARM5ANcXv6xABmXkPHukCUhiVWE28aKFNKvyjP6tPU1t4epYMRIvQDiMHPXV3YRZnTxXQRTKkHqiru0knKlya6ZAXEPzzGJ5brE+vJrjvqREcArpDukhi3KfinPgaxr9KsvGQl38fi8VUQIUKEfgFOWJguMcJZpYbeaOmeRkY6manHf9meSEuRkf7qj5yUt8DZhkQkvVT+1E7t73z2HqPWC5Y0E1pjNhvCTh8hQoQ+AY83aejg1K+YGrXIGfBs24ZoCqS+ZTueLCLtDlIsp0TvqTOkgUpU5+/5hpjXhwXa4GbfNgAoEOU938MqGhOpYUu2tXUqRIgQod9AH9QOJA7LaJ5m1aPrbdub/om53+WDKmzNAe+NqIhJDI/JyEgX1WPijftZS+kAfJGVejVsc+oPjhB/gi2LIUKECP0KxL8imUxacRLfw5jIAt5JmHeH6ajIC0BFX55hME5K5o+YSEDPH4C5h087lpcpvFReId4cvWF018pe66NUMEKE/oeYf8WZM2eyNR/WTGXR1WZHSHdc7rz3kNrOswy9Y/Z0AnEEcABne4E+pUddejqoR1q+qMsfucnvENZ8QvZGZBUhQv9F3LTyDKOtrnzXfyQS8U5GBRO5R8slLqIIpEBL8gntptRQ3x9UBEU8w2uETcFQli8Ko6r3kL10suUH2ba2ZZHfKkKE/ot4sY1d+fxbCTu/hVFUCgRppbQoyiium4RynZwKyArcSEu+J37Ci4GRFHG4Dk4ruy4Wjy9jAvu5npw/QoQIVQYpZ2fGbov43NiE1LHIRkzrqmlW3MQZc59Ro0dJ4E/jDNGXQ3LqVdex1P6UZkk8nmHftTcej29m2V8UUUWI8AlBWYTlR4qBaV5FJ5s3TpwX8ECIpG970ndMpE1FiPDJxv8DAL/ogNE+GhYAAAAASUVORK5CYII=;" vertex="1" parent="1">
          <mxGeometry x="216.73" y="60" width="152.54" height="30" as="geometry" />
        </mxCell>
        <mxCell id="0_n0GRW0i9C8n6efJb2y-37" value="" style="shape=image;verticalLabelPosition=bottom;labelBackgroundColor=default;verticalAlign=top;aspect=fixed;imageAspect=0;image=data:image/png,iVBORw0KGgoAAAANSUhEUgAAAPYAAAAyCAMAAABYtdZYAAAAqFBMVEVHcEwcICglLEYaICkbICgaICkaICkaICkaICkbICqLrv5dg/AbICkcICwaICkaICkcICkbIClLdelehO9ulfRsjvQ3ZOQ3YuRbee95k/kaICkaICn///9vevRidPB8gfdAYuZXbu1MaOoxXOIjVN5NoutcpfBsqPWMifw9n+Z7q/pCduhahe9Pfuxji/J0l/ZrkfUybON/nfvy9f6kvvjA0vrg5f2ao/eWX6F+AAAAG3RSTlMAQBDvILuf34Bg/iCQQM9wMFBBY6Hdz4u5f3zrMRhGAAAG/klEQVRo3uWaeVviPBDAeyRNC+VUPN4CiuDqyqVyff9v9uZqMpO2UnnkWXedv7Rp0vzmyEwSPK8ozatB0/tpElzPZs/Pl80fBj2dTjn2893tDwLvX02FCOy7wcWPgb6/V9h3QkY/Arx5c69EY49Go/FN858P6gcukvpeYgtqLv/22nYxmTzk3PeLg6QW2JPJ5PovQ2nFH7ZSITqoBxMhOfd6mxtbPryqCPEghpK0AtTaEQ+7R6box9VvJaKp81noHs3YR+1JxkW+0b8ZT8aGm4Nvd7mLa1Vc9ctGIJkj7YjYViaeJEcmGct+tHp09kno8FifHDu4VIRjy73fQGMLB5heN2tgc4lPwc5aJU30FOw4q4l9O9JRPDYGXw2HB0wt0tp1UAfbWu4z2KxieufDlmsX5t4Nh3vr4gp6Ops1a2Fn/52AnRVDmJ0ZW+UqAD4ecjm4xq7ETn0lHeWVWai9Qq6Yfk3sMCg39vmxDfdOYO9hYEvqKmxr0E6W1bFwGXbmJB3CzoytCjJg8MNwqMwNbV0LW0PEp2A75jbPz4oN/Hy0UdibO2Ds2awWtn86dhaVrxpnw5a7LePpOTXnHlkXn9bD7kJst1xpRSzMQpro1N7yMTZKYlEZdiumjLG2GcGWTZ2IN9CUFLCDVtoWXTqkiH2nsSX4fmhkP35QFboydg3sHpw/Xslb1IAkor5rK+2oaVKnZlEDRwjBDsBbCKoVQ/scY3fCYhdg7ec8wO82wyHktoFdC5vCjyLsDippOsYp1DR9x9xynAghxChJsl5x8ZPPoaoIRV26RWxt8AOi5n5+uDe2Po7dpeh/iI0nnTEH28PmVskLWS52q4OkjBoFhtsSdovWFuiH/bAg+wdj7CpsGilhTiYC2MTU7BHFZaxGI0WFpTBOc+o2pfozIUFVTchbHOy2akiTJFYvsQBiHxR1GbSQ3foINla0X1aTM9BGohJsLwVJTE2MAGz9ISpRewwUwVofcSCDHGIrl0kDN7Nq7PV6/f6+3W+G1bI7LJbz+bwGNm2V7cB8oGwwVYgdhOYRyUPAYitNpdivW/bPLsokqg9DWTE2atXYv5U87SrAN7vtu5JaNTlLithq1sTZWyFsMC/8SPwRYLVpNUbGpLFTBrC8JbTfDPPZYOzfvx+3mzLo97X0h/f3Rs2tSFrADp385JdgK3OncJ00bX5pxgjNH7bAU6OwXNWgBEqRpnLsRyG/dsXAfn0V1OsPrJ1PJ/D10pE62F13jwU82jpyrF0iwk8YaHKKf1JUqO0tF7QOMRIjN9DYj5rbMfh29fpquY/nbdIGCdhg+4UirF2CHTC1atkxY2S50HOrQZ670U7XKET0KXXE0MWW0FxeNoh6lXPXw9Z2pMewaQm2jlM5QNsrYrdLPkwKe4Deh9gZxlbUgvsJcG8XqxUEr4GtDROcgu1RpzzH2OzLsS31r6enraVeLCD2ug42CEMntpMjTp6rx65E1U5uFInWUOTkIaykjADsR+viv544t17XdsvFAoPXx24h7MCdHMlKsY25iYPdKV/SuvobHyxp1RtPAM2ZuSg336yWLncdbGrLB5vAmJNmkgpsH++8nQQWO5WQ8YPMjkxMAkurDqIx9qO2NceWbr5dCsm5BXgdbGJCCGLH2Ny6tCpia6WRwpFBiPWWGO10nBOKNMOqAgtKgLGBhytjvwhz71fzHFtwvwru49gtWC5bbLW+5+YiLKvCJsiqbk6nWG2kMDI6fma6sjedYhdbr2aC+0Vg8+jezZfzJQRfVWLT/DYo34PB/UcCp0OTLumlYVaJLaxlZwpyuurDWuBUIYIjy0OEbgS3Ij1YK8tOKcRuXtrVTBn7pTEcLvjWY4kMXnLlW16cFqo0/tV21f3JR2dfhZzOHZ2ZE1WlnYCZltDZeGolML6ct8HNhbkD6w8w9Utjv59LWRqDD/p17sAqanJ3yx+xz2IXjhmMTziHCSDFF3St+tirP+9iAKFfGrvt/M2am3PfBl5NbLvhRodKJAJTCz6PDY/FRMlGyg+VYgL7pHhTTJwbT497+lMe2Jy7sV2/vc2twS+D8nkVsFnqV954+jori4uSE7Ch4kJ8JB3n4HxohJ0fc+WfLWArcA3NsVdvc8XNDX7Tr/wBhI+EYO3IZwF6vZd0A7T59Yh4qeIS3G0LeimlNOoUL5hkg1R5kHDpgTES2ZSA1O68cTFQHi5k+SZEgp/hVzvdysvdPyK32tiNhoQW2NfBGb7j1lZ//LdKlw2LzeXqy36uE6TOvUT5Lxj+GLjCnkro/pcNy5dbpu9w8vPNxPtWciGwZ5z6C4O6FepT7iiiYfb9jC0NfsutPf3KoA6KNxeMeN9Ompdf6N9useKWG/+0+PAaLoy9HyMkoW0e16yd+t8gdf0PxNHdl2KDVEMAAAAASUVORK5CYII=;" vertex="1" parent="1">
          <mxGeometry x="398" y="60" width="126" height="25.61" as="geometry" />
        </mxCell>
        <mxCell id="0_n0GRW0i9C8n6efJb2y-38" value="" style="shape=image;verticalLabelPosition=bottom;labelBackgroundColor=default;verticalAlign=top;aspect=fixed;imageAspect=0;image=data:image/png,iVBORw0KGgoAAAANSUhEUgAAAOEAAAAwCAYAAADn0R3wAAAAAXNSR0IArs4c6QAAAARzQklUCAgICHwIZIgAABYSSURBVHic7Z17mCRVdcB/51ZPd1fVzOzusAvLY4UFAYXloYC6QsQlAhoIBBRQxMTlw10xRheCQUF2FxKNiBHxE4IkMRgMUfkwIRIhEhINIgKLyi6PCCqP8FhgX/PoquruqnvyR3fP9PT09Gt6dlnSv+/rb6Zv3brndnWduveec+5poUtcdILuCnxKhbOB3VR5QuFruc3ceMNDEnRLTo8erzVkpg187J3a76ZZrnCpCLvVHFbgl6qsHixw59ofSTxTeT16vNaYgRKqXHgCJ4lwBXAYYBpUjoEfiHDZl+6U9Z3L7NHjtUdHSvjJZXpgqo+rVThBwGn5RCUErh+1XH7Df8hwJ7J79Hit0ZYSXnCiDhnl08DHEdxOhSq8pMqljHLz1fdJ2Gk7PXq8FmhJCS9Yqq7M4Q9F+Qywd5ck27m7cf+BS1nz2EbuXrtWbFfa7dFjJ6OJEqpceDzHieHzwJE0Xve1TF8GXrcE3eV1iHEoqPB9a7nk/SvkiW6036PHzsQ0Sqiy6t3s7ShXAu+jS8pnHFi4L7rnQYjTVyuSAPiyFrnyzD+WsW7I69FjZ2CKEl5wog4Z+DjKpxD6uyJEYO5CWLQEvDlNqz+LcslYH7cuXy5RN+T36NEmqWw2uxTIABhjhoMgeAiYdsnked5RwBGV99bax6Mo+nErwsaV8IyDNL1oEe8HLhN4fae9r8WfC3sdXFJCad0MlAA/sQmrz/qo/PdM++B53h6quriFqjYMwwcpuVRmDd/3D7XWDsymDIAwDNcDo7Mt5zXIoOd5jwN7AKjqz8IwfAdQnO4E3/e/q6pnVN6LyKdzudyVrQhLAVz0bj1UlWuBpbTjcmjUcBoWHYQuWIyY9lt0gGONww9v+Ru9JZXiT05bLts67YuqnikiX2yhXgTs5bruR0XkjZ3Kq2Ct/VUURV+oU36diLxlpu03w3Xdd4Zh+NMGVQY8z7tHVbOz1QcRia21J0dR9HTtsWw2+yERuXS2ZDfoUz5Jkvfl8/knO22i5r1R1WOrC4rF4r/WqVcPTZ2/LDpQlbuAXTvs0OTeGdh1b3SvJUhfZsYRORngnCThfuBrM2jHALWr0HrElC7cicBxM5AHgIj8GJiihCKSarE/M+5Ck+NGVQ8QkY7dTS0Qq2q63gERmSciB86i7LqoaqiqmQ5Pz3iet05Vxx/SUpriTRpqHMfZ4LrNL2uSJEtSN73w4uoj5szZ9ZA5c8iYGdhfBObuii5aAv68mYfDVVDlaePQ6GneCbcCL5f/fzPw1uqDIpLQ3pRUmPwl2PIrafH87wPP1Sl3gbOB6pt4HfDgNO28D1jQosxXA0r7U3+HyQ8XpfXrXKHd+rUYEWk4v2t2vLpqKorjk+7dvJnHRkd429AQ+/v9Fc1uGXcA9loCQ7sj0hU7KgA5Eb6iDte891x5pWutAqr6xTAMHwDwPO+zlJVQREIgsdausNb6rbaXSqWOBa6tKvpeHMdrjTEtBa5ba6+Jouju2vL+/v4F1trTqFJCa+0PoihaU68dz/PeQntKmFPV96hq9761qWg+n6/3gCGVSt2cz+f/s9WGUqmUB3wP2Gu8cdXfGGPOKBaL067X6vWpUCj8tvLG9/1DkiQ5DCCbzd6+bdu2Rj5rq6rfB35eKRCR42E8blqBf1HVXCsdSaVSwylgDsDWQpE7N77EeneEY+fPZ0Gm+WhtUrDXG9GF+yEm1YrIllBVbiPm02d8jCdAtGst1xfmVz10tgBxvfVLI0RkH8eZ9ODbWigUHu1OD2eVuFUL3mwwOjq6Gdjcav10Or2g9uEoIhtyudx6Glgum2GtfY8x5gsAhULhKKDeWlHS6fRBjuOcmMlkvrBt27ZhgIGBgaEkSaq/65eCIPgwrRvEdJLqKPB8GPKd557joIFBfdsuQ+I5U0dVY2DeXrD3IZB2uzb1tKpsUOGSs1bID7rUZlNEpHrnx/8ABUpryFbWSXlm2ZLaY4I4jpcYY+bWFP+CGSgggIgMU57iWmtr20dEDvM872VKA9aWYrF4MyV1IY7j40Sk2p5yByUFbHnwqDt+JapsGBmWX+fGOGrePJYMDtJnDAgMzIdFB8Pg/JY/Y1MUXkD44lbL36xcsV33HgqlNWGFDYDNZDIHGmPubHayqq6JougfZtwJkUtc1z23ttxamwW86jJjzOmu607nQmrFDfOqJJPJHCgiezSqY4w5h8nrQauqw9lsdlmLYn4bRdEzdco3Vv5xHKdeH1wmHsopa+3R2Wx2K4CIVPdJrbW/zWaz76w+OYqidTQYGRtOIsMk4Z5Nm3h0ZIR37D5ff/cYT+btUYp86QpKHuGGDHzu1PPkpS612jLlNdfrym+tSMknqap9IrJPs/NFpCu+PhFpxxK7RESWdEPuqwljzCdE5KNNqk1xDYjIV0RaW7Ko6iVAPd/dc5RGLkmSZFFZTq2sRFWfFZENwE3GmIpbp3o9LcaYK6gZBfv6+o4qFos/ZxqaruQU2FwocMfwS4y8MkdPGRqUBX5qpnNQC/yXY1h1+nk8Otvrvmk7Ye1SymtiYKPjOA/Uqaaqeg9li5qIHAEMdrkrCeWboM6x2keeZfqpjpmmjVc9qirSmVmvnsJMK6NeubV2i4iEIuIZY/as0+a6IAiWASEw1/O8x6iZoXTSnwotm1NU4dFXQnlyc8Tv7N2vy/bpFz/d9jVTlF8JfPaRF/jnHbxzQoDTKD/JVPV7IyMjW+rUS8IwPAkYA3Bd9/5ZcLSvjOP4vtpCx3HmAXeKyHj4oLX269bauj7TVCp1C3BQE1kmm82+Q1VnPWKnDjafz/9bi3UfBepNHdvhjbQwRU+n08NxHI8AnqouofTgq374pSmt/RMgB6xR1QERuZzyNFVVfw1cB6VoGdrwu7dt0yxY5e6nRuXnLwb87r79vGVPnz7TkuJvQrhSC1x/xqsgQNt13T2BUwFUNWet/cqO6ou19ulCofBYbXl5ulzr03qlXl2AVCrVyt7MtDHmWpora9dR1TzQUnROkiRfy+fz189Enuu6XxaRC5rVGxkZGfM87yVgoYgsyWazc5isG/1MKGUUBMH1ruueTZXxTlUvj6LoW2W5K2uMNQ3p2LGwNUq49bFhHnw+4KQD5ur+Q+npNDER4RuSsOa9K+XFTuXNAnurakZEEBHHcZxuTzG3N46qzqv28YpIYQf2Z2eiAPyaUpqWfhE5XFVTVddykMm6kgZWV96IyD1RFH27U+Ez8u4p8MxwkesefEXetNDTk/YfkCFvfL2YINxnDJ9877ky7aJ0RxGG4b2u634WuArIqurVwAmUvpDtijHGp846M47jAWMmTzNEJFNbd86cOU6hUPiIiLyuqjgxxtSbzllV/aGI1B1Nq1gK7FlT9r/A/U3Oa8Sr2Z1zN7APgIgcqqrVYYUDvu9nc7ncMIDruieLSMVCba21t3ie96ZK5dpYXMdxlvT19U0xZ4pIMZfLre+ai/0XGwN5fFPIO/fp5+h9/ed94/zZ1oRbVp4n7UQybFfCMLzO87wPAEeKyNGe5x0fBEGra5ZucpvnedMZW2qV8GLP8/6suqxYLEqdKKefjY2N1VvjFsIwbDZF8z3Pe7qmzFprL4ui6JtNzt0pCYLgr4G/BnBd92gRuazqcMZauw9QseDvx8T01IjIV6vbqv0ujDF1r5mqPgcc2L04FyDoS/jOwS9x07EFyXuk2CWClTNsVNcaXjx5iN2P2EyLpug2iIAbKGUNSKnqWcB2CxSooR2LWrO6W1T1YjoceTzPOxuo9QQ/HkXRdztpbydkd2o2sovIkcxsFjAtXVPC3FsLOvL7gSRDFoQ9gG+wOf1RNj26ivkH1zP9N2fThjeySb9KH29n0/q1lKaO3eZ2yu4BEVlGa5EyM+UXZSNFQ0SkDziKyd/TM6pa12pYXgPemyTJt/L5/K877FsW+GRtoapeTslEv11wHGeHuVqMMYtVpzzvD6n8o6oPANNujROR84ChqqJ/UNWNtfVUdRgozkwJBQqLiwz/QaT5/YuTL5riAEshuY+X13+Tgq5mz8OeR1oI53lh3XxS6UtR/WMqW35UlrF27V+xdm1X3RpBEGz0PC8AfGDhwMCAm8831Y+Zyjy/lXpl6+iTTPgysdZ+c7oA7m7ged45lEz71dwVhuEtsyVzGq7zPO+67SwTAFXdr07x8ZRmIFqOt/1x+f0cqiynQM513VNFZFwJi8XiNcVi8UkmAvELVEXQdBw9H++SsPXsHK9cMMoUBZyMQVhORh7mlfUX8+TPprdC6v+6bHr4fPrSv0RYxfbZc6eUYkABUoVCYd52kPmqZGBgYBdV/QyT74vhOI6njIy1DA4ODmUymf0rL0oPtZ2RPuDwOuWL0+l0baTSoOd5j7uu+5zrus95nnfxdI16nnd1Vb2bqo+1PRJqWhl9V17HjgvF+m0t0YYQPs9cbzkvb7iMHz1+K2eeWfKBrV1r+NhpJ7Bp65+DHMH2jfowVEU/qGrDa1K9T2y6CIwmDKXT6d1bqRjH8TwRcWoW+gvS6fTBLcqyhULh8VY7Zq1dLSL7VhcBlxYKhf9pdm6xWHyD4zi3Vzbwuq77d2EYrqKNQOZqVHVMZMY5hnzaXF4MDAwMJklSrWyVSCZxHGc5cGHlQH9//yJr7a7lSB8FGrngnhGRitW0krnQQjtKaCA8vKjDp+UkXmClQzUR4ABE/4llb7iHLRs+QcGOkjJfQvVUupRaox36+/sPtNZW9m1pX1/ftmKxWGuUcAAnk8nsB4wrgEj7v61Rtsa2GhhQu1kYY8xKY8xHWjx/pFAo7NJKxWw2u0xL0/9xVPVfwjC8gRYUKQzD+z3Pe0BETiwXfcT3/b8rbzPqhM8EQfD1Ds8FwHXdq0Sk6SheTbFYfHfZZQSlaeM3gY8AiMgfAlcA2wCSJDm+KtQuieP4Jw2a/kXV/wuy2eyiSjB58+mogL7BEl4esnnlqMS72m6MUwarx7K1+AAj8WPE9nR2gAJS8g+uYeITbc7lcrXRPI7ruutc133McZyHmYj4sKra9g1WHj1TLb7qXRMzw/On4Pv+bsaYG2vqPxyG4Xk0SG5UQwJcw4RF1rXWXkKHd4u1Ni7LnsmrbfuBMeYDVW/vANYwsctiyPO8C5n4TKdW1X1+ukgmAMdx7qO0XxWgT0ROqRxrOBLqfMV+uIienEC2S1NEBYIYRhJIynk+wgQG+xTfSDsp2WaC67oXich7VXU8DlRV7wZqt1JJlWO2mn8vZ2ZrCxF5Fvj3VuqqalpEfofJ39NvKEV3tEIru7tdVb0RqHb0/8ZaezqwtUU5AARBcFc5uPlQABE5PZ1OH1woFB5pp50dRXktWxnJVUSuz+VyL5azL1xP6Xv4eCaT+VZfX1/aWntM1el/T4O0GaOjo1td1/03EfkQJSU+s9zmNNbRtGJPs2rPLQjN84S2TpTASAyFmtmNBbYVhTGBOSlwZ31QFOA8YDzJkKoGlJ7ktrwWqRvlU05bcHsYhtfT+igxThAE36fkFmmK7/sLVPVXTLaO3hxF0dp25U6D4/v+X6rqCVVlT8dx/AfV6R9aRICMqt4pIoeWy/pSqdSfFgqF5d3p7uziOM5FTDzwfp7L5e4GCILgRs/zjgE+DMwDFidJsrLKPrDZcZxrpzQ4GUspwPsMICsib/V9f1kul/vhZCU0oEckJBcUYd+OjA71iRVGYyWXNG4zVthcBNcqg47QN5upTyZQ1VFVPT+KovsAyj62I5qc1rE4WjRWiIit469SZriTvILv+x9S1U8wMb0qADc6jnNINps9HHCMMX3lMCxXRDwgXR6h5wO7q+ogsEt5/+WUrGqqetbAwMCnRkdHN3Wjz23S8g2UyWQOAM4pv00orf0qD9kkCIIVnufNA05xHOd04PfLx6y19uIgCJp+vjAMf+Z53s3AuUCfqn4OuCcFbEOYq4stdkWMviPpUtJ7wCrkrDJSFLSN6WyYCFECvgMDKXAERLexZo2ydm1XuiYiPwXuV9VHgJujKHq+Kw3vRFhrl9TEu6WBteWg9vHC2jCsRsdqEZFsHMd/BPxVF7rcDmlqXA0NrK2OMeYyylbyskHqjpo6xSAIzvI877uUDDVC6WH4jTrZFaZ9yAZBcIHneYdSspAe6XneVSmdz+36weI59pS4e54dpbTOG4kh7nBEVWAsgdDCYErxzX92MWxNgyCYkk6iQ8QYU5s7c8pI5fv+wnLUScuU01tMMrEbY072PG9hm318MAiCv23znHaJKa1Bt1KKrKk4/EVEzmCy0aYpjuN08jkrCKV1afWaLVHVuksM3/ePq8qe/ayqXkj9pUbeWvtLY8wplO7Qvw2CYFV1Xdd1F9XkLapV/hFKBp1bgbep6opUcnPxCgbi45n6U9edUbCwLS797QaJwpbCTxjO/lN3GuwOruveAry5nMh30s0iIk/V1i8Wi/NSqdSKLoh+M5Pz4jSlvIG3nhK+oqrjPkARsZRuqLyqFoGCiBQpGau2qurLIhKoaigi21R1qzFma5IkT0VRtIXSNK7Y398/aK19DKi4Rw5Jp9Ovb8XfWMVJ5VdXUNV7oyiqGz6pqksprWcjVf1gFEXPNmhKgE3W2lXl7UuJ7/vvttZW1oQLgPEN06o6WigUJrUXBMELwHs8z7sa+GCK/Q56ko0PvwtHrgWOplNXQaKlkS8307yqk8gD3yZKLuTth7WUx3E7skeNY7vCi0mSTAl0LicUbjm9XzcRqb+JOgzDK6mfc2VGjI2NFVzXvUtETi8XpVKp1HGNlLDsc+3qNjJVtSKSV9U7jDGrKIWV1RUPBCJyVhiGjXx9GGP+1XGcr1avAa21vogsZqo7xgJfp76VelsQBMt937+5ZJhZeNgj6Lp3sSl9BrAakQNoNRrEaknxRuMumQsAJcHwY4rJao5aem+XWu0qIrKVia0tUEqke58x5qooiqaMhPl8/gno0myjfbZ3Dh9b3sUxHpSgqg0TeZX3c/5jNzthjAlSqdRzw8PDzVwtm4AzgyBouoMmCIJ1tWUikqd0L4xnXQM2isi3gyC4hgbXP5fL3TVV0Z5ZPw9Xz8eYiylZvqYnTGA4Llk1u8dTqL2EgV3+mf3370okte/7h6jqeKp7Y8xtY2NjM83qPcBk/12Rch6aHjsdaWY2CqeZsKgIZW84EzHJDZlutBO2PLqIYvyXGHk/tfbSooXhRImauBzaQWQM5UskchVHHrk9c4/26LFDaaxEqsKmR45F9fMIbyVRw1iijMWtbEhqsQeSR/U2kuIlHHn0b7rUao8eOw2NPYIiyoJDfkRu83EkuoKX808x2jUFtMC9iP09bvvBB3oK2OP/K+1NJ9evn0eSvwh0FdMnP22O8iKin2Fu8B0WL+v9JHaP/9d0tqZ76Kevx0l9GeU9tLcnMQCuI1e4gmOO6f2Mc48ezGxTkvDwQyeSxH+BMW+i8W/cFYHbES7j8LfsDD8Z1qPHdmPm1s2HH/ax+T8CuRS09hdtFNWHwKxmeOwuli17Need7NFjh9A9F8O6/5qP8f8U4WyQ3VB9AuVr5OObePvbt1uWrh49djb+D9NTnZ0Q/vMhAAAAAElFTkSuQmCC;" vertex="1" parent="1">
          <mxGeometry x="216.73" y="110" width="130" height="27.73" as="geometry" />
        </mxCell>
        <mxCell id="0_n0GRW0i9C8n6efJb2y-39" value="Network" style="text;html=1;align=center;verticalAlign=middle;whiteSpace=wrap;rounded=0;fontSize=18;fontFamily=Comic Sans MS;" vertex="1" parent="1">
          <mxGeometry x="120" y="80" width="60" height="30" as="geometry" />
        </mxCell>
        <mxCell id="0_n0GRW0i9C8n6efJb2y-40" value="" style="shape=image;verticalLabelPosition=bottom;labelBackgroundColor=default;verticalAlign=top;aspect=fixed;imageAspect=0;image=data:image/png,iVBORw0KGgoAAAANSUhEUgAABMIAAAEkCAYAAADNUp2YAAABWWlDQ1BJQ0MgUHJvZmlsZQAAKJF1kMtKQlEUhj/NMMy0QYOCAqNJAwux6DIoMIsKhMQudIHgeLwFatujFUEP0aBp0KBB9AJFo5o3C4KgB2geSFByWkcrtWjBYn38/Hux9g/2Nk2prAPI5UtGbH7Gt76x6XO+4KKbDnoIaHpRhaLRiFj4ns1VfsRmzYcha5c3kkufhTxTrpP+y+l2z8Vff1O5EsmiLvNDOqArowQ2v3D0oKQsPhLuMuQo4WOL0zU+tzhe4+uqZyUWFr4X7tQzWkL4Wdgfb9DTDZzL7ulfN1jXu5P51WVrj3QvURaI4CPIOGPMMcHaP/7Rqj/MLopDDHZIk6Ekb0OiKLIkhRfJozOMv7ozID1q5fw7v7qmlmByH+xaXduehasB8Bbq2qD8x5uCuy2lGdpPqrayo5gaCdbYbUDrm2m+9oHzBiqGab6fmmZFMmx5gtvCJxvUXipLrizRAAAAbGVYSWZNTQAqAAAACAAEARoABQAAAAEAAAA+ARsABQAAAAEAAABGASgAAwAAAAEAAgAAh2kABAAAAAEAAABOAAAAAAAAAJAAAAABAAAAkAAAAAEAAqACAAQAAAABAAAEwqADAAQAAAABAAABJAAAAADujSW3AAAACXBIWXMAABYlAAAWJQFJUiTwAAA+pElEQVR4Ae3dTY8lR5ko4MS6jYSQMWLB0vamhHHPjC6jUc8GqVn4DyDGl03L6Io13o8lG9lIeN9ezyCjlkbgi/gDXkwjNq4FHgGNkXpjs2ThMUYWktsabr1lovvU6VNVefJkREZEPilVna/MyIjnzfOR74mI85m/niyDhQABAgQIECBAgAABAgQIECBAgEDnAo903j7NI0CAAAECBAgQIECAAAECBAgQIHAqIBHmQCBAgAABAgQIECBAgAABAgQIEFiFgETYKsKskQQIECBAgAABAgQIECBAgAABAhJhjgECBAgQIECAAAECBAgQIECAAIFVCEiErSLMGkmAAAECBAgQIECAAAECBAgQICAR5hggQIAAAQIECBAgQIAAAQIECBBYhYBE2CrCrJEECBAgQIAAAQIECBAgQIAAAQISYY4BAgQIECBAgAABAgQIECBAgACBVQhIhK0izBpJgAABAgQIECBAgAABAgQIECAgEeYYIECAAAECBAgQIECAAAECBAgQWIWARNgqwqyRBAgQIECAAAECBAgQIECAAAECEmGOAQIECBAgQIAAAQIECBAgQIAAgVUISIStIswaSYAAAQIECBAgQIAAAQIECBAg8L8QENgUuPOnd4f/94fbw9OPPXHy9+Rw9eTPQoAAAQIECBAgQIAAAQIECBDoQeAzfz1ZemiINhwu8MYf/nN4473bZwp69onrw7OPf+PMfW4QIECAAAECBAgQIECAAAECBFoUkAhrMWoz1zn1Arvzwbvnliwhdi6NBwgQIECAAAECBAgQIECAAIFGBCTCGglUjmqOSYBt71dCbFvEbQIECBAgQIAAAQIECBAgQKAVAXOEtRKpmev58m9eHy7qAXbe7tLQScMlzxNyPwECBAgQIECAAAECBAgQIFCrgB5htUYmU712zQM2dVd6h02Vsx0BAgQIECBAgAABAgQIECCwhIBE2BLqC+xzyjDIsdWUEBsrZT0CBAgQIECAAAECBAgQIEBgSQGJsCX1C+w7ZwJss/pXv/jk8PRjT/iFyU0U1wkQIECAAAECBAgQIECAAIGqBMwRVlU45q3MnMMgL6tZzDeW5hwzf9hlWh4nQIAAAQIECBAgQIAAAQIElhDQI2wJ9cz7LJkAO68phkueJ+N+AgQIECBAgAABAgQIECBAYCkBibCl5DPst9QwyH2qLiG2j5Z1CRAgQIAAAQIECBAgQIAAgZwChkbm1C1Udo0JsNT0N967na6aP+y+hCsECBAgQIAAAQIECBAgQIDAEgISYUuoz7jPGoZBXtYcybDLhDxOgAABAgQIECBAgAABAgQIlBAwNLKEcoZ9RC+wl3/9eoaS8xdpuGR+Y3sgQIAAAQIECBAgQIAAAQIEHhaQCHvYpOp7ah4GuS+chNi+YtYnQIAAAQIECBAgQIAAAQIEDhEwNPIQvYLb9pQAS2xpyOTTjz05XD35sxAgQIAAAQIECBAgQIAAAQIEcgroEZZTd6ayW5gH7NCm6h12qKDtCRAgQIAAAQIECBAgQIAAgcsEJMIuE1rw8R57gV3GKSF2mZDHCRAgQIAAAQIECBAgQIAAgakCEmFT5TJut8YE2DanhNi2iNsECBAgQIAAAQIECBAgQIDAoQLmCDtUcObtX/7N68OdD96dudT2ikvzhz37+Dfaq7waEyBAgAABAgQIECBAgAABAlUK6BFWSVjWMA/YVGq9w6bK2Y4AAQIECBAgQIAAAQIECBDYFJAI29RY4LphkOPRJcTGW1mTAAECBAgQIECAAAECBAgQeFhAIuxhkyL3SIBNY776xSeHpx97YjBkcpqfrQgQIECAAAECBAgQIECAwJoFzBG2QPQNg5yOHvOnpTnUJMOmO9qSAAECBAgQIECAAAECBAisUUCPsIJRlwCbH9twyflNlUiAAAECBAgQIECAAAECBHoVkAgrEFnDIPMjS4jlN7YHAgQIECBAgAABAgQIECDQuoChkRkjKAGWEXer6Dfeu316z9OPPTlcPfmzECBAgAABAgQIECBAgAABAgS2BfQI2xaZ6bZhkDNBTihG77AJaDYhQIAAAQIECBAgQIAAAQIrEJAImznI0Qvs5V+/PnOpipsiICE2Rc02BAgQIECAAAECBAgQIECgXwGJsJliaxjkTJAZipEQy4CqSAIECBAgQIAAAQIECBAg0KCAOcIODJoE2IGABTZP84c9+/g3CuzNLggQIECAAAECBAgQIECAAIFaBfQIOyAy5gE7AG+hTfUOWwjebgkQIECAAAECBAgQIECAQAUCEmETgqAX2AS0yjaREKssIKpDgAABAgQIECBAgAABAgQKCEiE7YEsAbYHVgOrXv3ik8PTjz0xGDLZQLBUkQABAgQIECBAgAABAgQIzCBgjrCRiC//5vXhzgfvjlzbai0IRDxTTCXDWoiYOhIgQIAAAQIECBAgQIAAgcME9Ai7xM88YJcAdfSw4ZIdBVNTCBAgQIAAAQIECBAgQIDADgGJsB0ocZdhkOfArOBuCbEVBFkTCRAgQIAAAQIECBAgQGCVAoZGboVdAmwLZIU333jv9v1WGzJ5n8IVAgQIECBAgAABAgQIECDQvIBE2EYIDYPcwFj5VcmwlR8Amk+AAAECBAgQIECAAAECXQoYGnkS1ugF9vKvX+8ywBo1j4DhkvM4KoUAAQIECBAgQIAAAQIECCwpsOpEmGGQSx56be5bQqzNuKk1AQIECBAgQIAAAQIECBAIgVUOjZQAc/BPFUhDJp9+7Mnh6smfhQABAgQIECBAgAABAgQIEGhHYHU9wswD1s7BWXtN9Q6rPULqR4AAAQIECBAgQIAAAQIEzgqsJhGmF9jZwLs1n4CE2HyWSiJAgAABAgQIECBAgAABAjkFuk+ESYDlPHyUvSkgIbap4ToBAgTyCxwdHeXfyd/28M///M/DrVu3iu3PjggQIECAAAECBPIIdD1H2Mu/eX2488G7eeSUSmBLIM0f9uzj39h6xE0CBAgQIECAAAECBAgQIECgBoEuE2HmAavh0FpnHSIZFn96h60z/lpNgAABAgQIECBAgAABAnULdJUIMwyy7oNtTbWTEFtTtLWVAAECBHIL3Lx5M+suYuhr/FkItCDw1ltvFaum50UxajsiQKCgQBeJMAmwgkeMXe0lEAmx3/3pveHpx54YDJnci87KBAgQIEDgVCCSYK+99lpWjeeffz5r+QonMJdAJMFu3LgxV3EXlvO9732vmgRxtHvuBKAE+IXh9yCBrgWaT4QZBtn18dlF42KeujRXnWRYFyHVCAIECBAoJBAnvrmTYH4EoVAw7WYWgdzPh1TJSILVlCDO8VpQsrdbjkRexKqmGKVjxyWBFgSaTYRJgLVweKnjpoDhkpsarhMgQIAAgcsFcvd8qanHy+Ua49bIkTAYt+f21rp27VpTiYToHRnxLbFIsMyrHAnMHLErGaf/+Z//mRdFaQS2BB555JGte/LdbC4RZhhkvoNByWUEJMTKONsLAQIECLQtkDsJFr1BSp5EloxGjhPukvW3r4cFSgwRTnuNBLGFwLbAV77yle273CYwm8A//dM/Df/xH/8xW3mXFdRMIkwC7LJQerw1gUiIxfL0Y08OV0/+LAQIECBAgMCnAiV6vjjZd7S1IlA6CdZrgriVeKsnAQL5BZpIhBkGmf9AsIdlBD5Nht0enn3iusn0R4bg6Oho5JpWI1BWIOYZmmu+EUObysZuzN4iJrl7KI2pR+l1lhg6WOL4X6JdpWNnf/0IrHVesH4iqCUECNQmUHUiLHqBvfzr12szUx8CswsYLjk7qQIJNC9gaFN9IVxjTJboNVXipP/4+LiLxGZrc1zV96yuv0YlE/B6gtV/PKghAQLzCFSZCDMMcp7gKqU9AQmx9mKmxgQIECAwn0Cc9JdIOJbYx3wq55cUiTBLvwIlhggnPb+emiRcEiCwBoGqEmESYGs45LRxjECaP+zZx78xZnXrECBAgACB5gVKnvQ3j6UB3QuUnhdsrqH93QdGAwkQ6EKgmkSYecCWPZ6ufvHJ4V8ev35aiTRxeyQmf3f6995w54N3l63gCveud9gKg67JBAgQ6FwgTu53LSWGQ+7ar/sI1CgQPRZLPSdi+LMhkTUeBepEgEBOgcUTYXqB5Qzv5WWnBFhKfm1uEfel+1NSLPVU2lzP9bwCEmJ5fZVOgAABAuUESp3cl2uRPRGYX6DUvGDRC0wSbP74KZEAgfoFFkuESYAte3BclADbVbPNpJhk2C6h/PdJiOU3tgcCBAgQIECAwJIC5/WazFGnJX4MI0c7Wiizl3kJW7BWRwJjBBZJhL38m9cNtRsTnUzrPPvE9WHq3FOxXfwZypopOCOKTYnIqTEcsQurECBAgAABAgQIFBYwL1hh8EK7K5ncLNQkuyHQvMAiibCnH3tCImyBQ+eQBNh2dSXEtkXK3Y7efE+fDFu1ECBAgAABAgQI9CFQOglmSGT+4yZ6gZWc7y1/i+yBQD8CiyTCJFHKHkD7DoPcp3YRy0jKxKT6qafSPttbdz+B7//Dd+7P27bfltYmQIAAAQIECBCoVaDU/HnmBXtwBJSai+3BHl0jQKAWgUUSYanxEmJJIs9lzgTYZo3NH7apkef6nL358tRQqQQIECBAgAABAlMESiZkbt26NaWKtiFAgEBXAosmwpKkXkVJYr7LJRInEpvzxS+VVCqZmfbnkgABAgQIECBAoJxADIksNZG6yfHLxbXEnqJ3n4UAgWkCVSTCoup6FU0L4PZWkTj5/t9/Z/vuorclxA7nlgA73FAJBAgQIECAAIGaBcwLVnN01I0AgZ4FqkmEJWRJlCSx32WNiZOIZVrMH5YkLr9cojff5bWyBgECBAgQIECAwFwCJSdRj55gJsefK3LKIUCgB4HqEmEJVUIsSVx8WWMCbLPGkmGbGhdfr6E338U19CgBAgQIECBAgMAcAiXnBZMEmyNi9ZVx7dq1+iqlRgQaEag2EZb8UiLld396b7jzwbvpbpcnAi31HJLYPP+QrT2ZeX7NPUKAAAECBAgQILCvQAyJLLWUmBcserfNOc9ZzH1l/qtSR4j9EFinQPWJsAhLSoa98Yf/HAyxO5lP7WQesH95/PrpvGqtHbYSYg8i1nIcH7TCNQIECBAgQIAAgbECPc4LlmOYp0TY5UeUnn6XG1mDwHkCTSTCUuXXnkTpKXGSkptr7enXUm++9PxzSYAAAQIECBAgMF2gxyTYdA1bHiIgUXiInm0JDENTibAUsDUmxL7/D99psgdYitmuy5QMW1NPv56Smbti6j4CBAgQIECAAIGHBXL0mnp4Lw/u0VvogUWP18wP1mNUtamkQJOJsAR0P5Hy3u10V3eXa+g5tIbEpgRYd09NDSLQtMDdu3ebrr/KEyBQXmDpXx6MRFLJCebnFn7ttdfmLvLc8m7dunXuYx7oQ0Cis484asVyAk0nwoKt1yTKGhMnvcZyDcnM5V7C7JkAAQIE1iiw7wTgx8fHs07mvWkeQ5SW6p1heNRmJOq9HkMi55xM/qKWxnPDcXGRUPuP7fv6N1eLfYk2l6RyahBoPhGWEHtJoqwxAZZimC4jlrG0/sMIEmCnYZz931Jv/rM35MACS36zvFlV/psarhMgsIRAvA7t2xsikhA5ExH71mcJN/tcRsC8YMu497xXrzc9R1fbSgl0kwhLYJFEefqxJ4ff/end5hIpEicpim339JPMfBDHHNe8+Q+nJ3NLJcL45ziqlUmAwBiBKQmwMeVah0AugUi+lnq/jl5gS71HR49LSxkBX0iWcbaX/gW6S4RFyK6eJMLiL5YWehVF4uT7f/+d0/r6d1agpZ5+EmBnY+dWPoGcvRouqrWhFhfpeIwAgbkF4jUnDTmM616D5hZWXm6BknOaLZUgKTnsM3e8ai/flwG1R0j9WhKYNRF2+51PhutfnbXIgyxrT6JInIwPb+09/fTmGx9Lax4usNQ3r0t9yD5cTAkECNQiYI6ZWiKhHrkFSifBlkgUl+zxljtetZcvCVZ7hNSvNYFZs1bPvPrhcP2pK8ObLzxalUNtCTEJsGmHR409/WqO5Uc/+bfho5/+aPjiK68Nn736tWnotqpOID506hFWXVhUiAABAgQI3Bco3UsqviArmXiLhi71WeQ+8oquSIKtKNiaWkxg1kRY1Pr27+8NV557f3jxm58bXjr5q2mJhFgsv/vTe8OdD949vV76n55Dh4vXkNhsIQF2uLQSCDwQWOKb5gd7d40AAQIECLQhUHJy/CQiKZUk+ruUBOsvplpUh8DsibDUrB/8/C/DL06GSkZCrLbhklHHN/7wn0XnD6s5cZJi1trlUgmx7//Dd+7PQVeT2cd33h7u/fZXp73AaqqXuswrUGrS3e1aGxa5LeL2eQI5eyXEcdhjUjZOYnM+t3t1O+8YdD+BpQRyP5eXapf9lheI9zqv3eXd7XE9AtkSYUEYvcNuv3rvdLhkjQmxSKTkTohJgOV/MqWefrGnnD+OUHNvvjQMMr+2PSwtsNS3vj0mH5aOZa/7z3mMxsTpvR6LOd0ksnt9tmlXbQI5n8e1tVV98ghIgOVxVSqBbYGsibC0s5QQq3W4ZK6EWK09h1JcerrMmQyrOZkpAdbTUXx5W5b6gN1r4uFycWsQIDC3QLyO5ew1OHd9x5S3ZJsiOfz888+PqaZ1CBCoVCAlv6J6PnNVGiTV6k6gSCIsqdU6XDLqlxIpc/QoqrnnUIpFr5cRx7kSmxJgvR4l7bYr59Cpi1T0JrlIx2MECBAwcbhjgECLAksPPZT0avGoUedeBIomwgIt9Q6LX5fsbbhkzYmTXg7Yse04NCFWczJTL7CxR0F/6+kR1l9MtYgAAQIECBA4K1AyQVRyX2db6RYBAksKFE+EpcZuJsTefOHRdHcVl/smUSTAqgjbzkpELGMZ+0uhEcvv//13Trep7Z8EWG0RKVsfSbCy3vZGgAABAgQILCMgObWMu70SWJPAYomwhBwJsSvPvX/aO+ylk1+YrGnZTIhtJ1IiYRLLvzx+vcpfEDytnH+nAikZFj+MEMv28NeI5dOPPXF/eOzpShX9kwCrKBgLVsWwyAXxV7jrmzdvDsfHx9W1PJ4HNdarOqitCoXb1NeQpYcObTXFTQIEOheQBOs8wJpHoBKBxRNhyaGF+cNSXV22KZASYumy9lZEAuzjO/813Lvzdu1VVb8CAnqEFUC2izMCSx1zZyqx40at9dpR1WruOsTMHIHVhFFFCKxCIH4AwkKAAIHcAo/k3sE+5UfvsGde/XB45od/Hm6/88k+m1qXQFcCqReYJFhXYZ3cmENOYifv9GRD38oeomdbAgQIECBAYF8Bv4K6r5j1CRCYIlBVIiw1ICXEXvn5X9JdLgmsQiASYH/81teHj376o1W0VyPHCUwd0jSu9PPX0hPkfBuPECBAgAABAvMK+Nwxr6fSCBA4X6CaoZG7qljzcMld9XUfgakCqQfY1O1t17eAHmF9x1frCBAgQIAAgWHQG8xRQIBAKYEqe4RtNj71DjNcclPF9V4EPj6Z/0sSrJdo5mmHJFgeV6USIECAAAEC9QjcunWrnsqoCQEC3QtU3SNsUz8SYrdfvTdcf+rK8OYLj24+5DqBJgUkwJoMW/FKGxZZnNwOCRAgQIAAgYICfp22ILZdESBwKlB9j7DtOEVC7Mpz7w/mD9uWcbsVAfOAtRKpddfTRPnrjr/WEyBAgACBEgKRBDMksoS0fRAgsCnQTI+wzUrHdfOHbYu4XbuAHmC1R6i++sWwyCWGRkqC1XcsqBEBAgQIEOhNIIZD+szRW1S1h0AbAs31CNtkNX/YpobrNQtIgtUcnXrrZlhkvbFRMwIECBAgQGCaQCS/JMGm2dmKAIF5BJrtEbbZ/DR/2Ivf/Nzw0smfhUAtAhJgZSMRvaeWSh7laOkSvcGiHWHYk+NcsTGR71ySyiFAgACBNQpEAsx8YGuMvDYTqE+gi0RYYjVcMkm4XFpAAmy5CCyVPFquxfPvmeH8pkokQIAAAQJrFEhDHyXA1hh9bSZQr0BXibBgTr3D4tclo4fY9a9218R6jyY1GyIBFstHP/0RDQIECBAgQIAAgRUJxKTvKfGzomaf21QW59J4gACBhQW6zRJtJsTefOHRhZntfg0CeoGtIcraSIAAAQIECBA4X0Dy53wbjxAgQKAWgaYnyx+DGAmxK8+9P7zy87+MWd06BPYWiATYH7/1db3A9pazAQECBAgQIECAAAECBAgQKCvQbY+wbUbzh22LuH2ogB5ghwrangABAgTWJhC9ZWKuoBLLkj/6UapX0LVr10pQ2gcBAgQIEOhKYDWJsIja5nBJ84d1dRwXb4wkWHFyOyRAgACBTgRiHqXcSw2/IuyXZnNHWfkEDhM4Pj4+rABbEyDQrED3QyN3RSYSYs+8+qHhkrtw3HehgGGQF/J4kAABAgQIVCGwZG+wAIhE3M2bN6uw6KUSftG4l0hqBwECBJYXWFWPsG3uGC4Zy0snvy5pIXCZwMd33jYP2GVIHidAgEBGgVLDzTI24dyineSfS7P3A2FZg2dKxpXoAbc3kg2KCNRwHBZp6Aw7WeL1PeJz48aNQe/NGQKoCAKNCaw6ERaxkgxr7IhdqLqRBPvgpTJzmizURLslQIDAfYE4cZ968n50dHS/nLmvxHxIU+s1d13mLC934ibm5Jp6kjl1uzl99i0rJaD23S7H+lGXMGzRMYfHIWXWFNex7Ygki2WcQCSjlniexOtv9N7s8b1lnLy1CKxTYPWJsAh7JMP0ClvnE2Bsqz/6yb+PXdV6BAgQIECgKoE1JWLihLa2XjiRDLl7925Vx0RrlTHMtLWItVXfSLLGfGG9ftnSVjTUlkAZAYmwvzm/IhlW5ohrdC/3TnqEWQgQIECAAIG6BWrtNaTHyfTjJhKbtcZ1eqtsWZtA6pnb8rEm4V7bUaU+NQuscrL8mgOibvUJxLBICwECBAgQIFC3QM3D0OLkWq+m/Y+fMKs5rvu3yBZTBZYYNjm1rrYjQKB+AT3C/hajX7zzyTB8s/6AqWF5gXu//VX5ndojAQIECBAgMFogkiW1DYncrnzqadLqXEQxdKyUcbIqtb/tWLlNgAABAn0LSIT9Lb63f3+v70hr3WSBj+/81+RtbUiAAAECBAjkEUg9rFLSJM9e5i016prmImpt7rY0dGxeEaURIFCjQDzfW3ptrdFQnfYXOOTHffbdm0TYvmLWJ0CAAAECBAgQmCyQ85dFJ1eq4IYpoXTISWYk0eJX9iyHCcTk6BYCBHYL6JG528W9+QQiEVZqMUdYKWn7IUCAAAECBAgQIECAAIG9BcwRtjeZDQgQuEBAIuwCHA8RIECAAAECBAgQIECAwPICkmHLx0ANCPQiIBHWSyS1gwABAgQIEGhSwPCTusLW2txddempDYF8AiWHTeVrhZIJEKhBQCKshiioAwECBAgQIECAQBUCcbJt/q0qQpG9EnoYZSeedQfiNSunwgisWsBk+asOv8YTIDBVID6MmWR3qt682x0y4fS8NVEagWkCjuFpbjm22vzFqkiG3bhxI8dulFmJgMRKJYHYoxrxHPWauQeYVQkQ2CkgEbaTxZ0ECBC4WCCSYM8///zFK3m0iIAPxEWY7SSTgERLJtgJxUZSZPN1PW476Z4A2cgmEVtLewLxHPW+317c1JhAbQISYbVFRH0IECBAgACBZgXGzvcV6zmZqyvMuxIjKTEmVnXFSm3WLSBBve74az2BOQQkwuZQVAYBAgQIECCQXSCSEcfHxzv3MzYBtXNjd65eIE6szxsmJxnW5+GR4tpn6/puVcQu3gu87vcdZ60jkFNAIiynrrIJECBAgACBWQWc+MzKqbATge0hkbtQnHjvUmn3vl29/9ptzTprHnP4HR0drbPxWk2AwMECfjXyYEIFECBAgAABAgQItCowNinilyRbjfDZeke89QY7a9LqLc/JViOn3gSWF5AIWz4GakCAAAECBAgQILCAwEVDIndVx4n3LpW27jtvCGxbrVDbEIhYek46FggQmCIgETZFzTYECBAgQIAAAQJNC4wZErndwNhmbA+y7W3dXl5g38Tn8jVWg8sEJMMuE/I4AQK7BCTCdqm4jwABAgQIECBAoFuBQ06eY1idZFh7h0bEzJDI9uI2psbxfL579+65P3gxpgzrECCwLgGJsHXFW2sJECBAgAABAqsXODSRJRnW1iEUiRJJsLZiNqW2MUzy0Of2lP3ahgCB9gT8amR7MVNjAgQIECBAgACBiQJxshyJkUOXlFh57bXXDi3K9hkFDun9l7Fak4uupT03btwYavwV33hext/NmzcHz83Jh5kNCXQvoEdY9yHWQAIECBAgQGDNAnMkfXrwi54icw+fihNuPVDqPToiNiZTrzc+OWsWz814vqdeYl4Hc2orm0B7AnqEtRczNSZAgAABAgQIENhDIBIicWKcY4ly4yQ7ep/U2EMmR5trLzPiETGX/Kg9UvnrF8fAruPAczW/vT0QqFlAIqzm6KgbAQIECBAgQOAAgV0ngAcU19Sm0fZr165lS4BtYqST7Ti5lhDblCl7PeIgAVbWvNW9rfm1sdWYqTeBOQUkwubUVBYBAgQIECBAoCKBSAStZUmJr2hvSkyVbvvmflNSLNVBD5QkMe9livum/bx7UBoBAgQI9CYgEdZbRLWHAAECBAgQIFCxQMzbs4ZlqcRM7HcN82JFOy0ECBAgQGCKgETYFDXbECBAgAABAgQqF8g5L1blTV999SSJVn8IACBwkEDphHqJIeVr+ILgoKBXsHHJ9y6JsAoCrgoECBAgQIAAgbkFck0OP3c9lUeAAAEC9QmUSkrEsPHcQ8fNHVjf8bV0jR5ZugL2T4AAAQIECBAgMK9AfOi3ECBAgACB2gVyJ8Gi/b4Yqv0oKF8/PcLKm9sjAQIECBAgQCCLQHyD39I33yVOgLJAK7RZgVK9XJoFqrjiN27cmL3n0FrmLKw4rKe/tJuzfr4YyqnbbtkSYe3GTs0JECBAgAABAvcF4sN+a996x4mthUApgUiCtZ4Ii+Tx0dFRKTL7IZBV4ObNm1nLVziB8wQkws6TcT8BAgQIECCwt0DrJ5l7N3jhDa5du3Z6Ys994UDYPQECBAjsLRCT5OdeWvuCKLeH8j8VkAhzJBAgQIAAAQKzCfhVptkoFUSAAAECnQjkGgbe8pcgJXqDGRbZyRMoQzMkwjKgKpIAAQIECBAgQIAAAQIECIRA9HyaOxkWSbCWE2Eljgy9wUoot7kPvxrZZtzUmgABAgQIECBAgAABAgQINCmQe1ik3mBNHhbFKi0RVozajggQIECAAAECBAgQIECAwLoFSgyL1Bts3cfYZa2XCLtMyOMECBAgQIAAAQIECBAgQGCiQPywieWBgN5gDyxcW0ZAImwZd3slQIAAAQIECBAgQIAAAQKrEijRG2xVoBo7ScBk+ZPYbESAAIFh9klPmRIgQIAAAQIECPQnEJPa5+4F1Z/a9BYZFjndbi1bSoStJdLaSYDArALxYcYHmllJFUaAAAECBAgQINC5QO7PzybJ7/wAmql5hkbOBKkYAgQIECBAgAABAgQIECBAYLdAiWGReoPttnfvWQGJsLMebhEgQIAAAQIECBAgQIAAgdkEYmikZcg+mkJvMEfZWAFDI8dKWY8AAQIECKxUIL7BPT4+Xmnr19HsW7duraOhWkmAAIEFBN56660F9lrXLkv0BqurxWpTs4BEWM3RUTcCBAgQIFCJgA/xlQRCNQgQIECgOQHvoWVCZlhkGece9iIR1kMUtYEAAQIECBAgQIAAAQIEqhKIBFj85Z4gvqpGn1OZ3AaGRZ4D7+6dAhJhO1ncSYAAAQIECBAgQIAAAQI9CxwdHfXcvGraVmJYpN5g1YS7iYqYLL+JMKkkAQIECBAgQIAAAQIECBBoT0BvsPZi1nuNJcJ6j7D2ESBAgAABAgQIECBAgACBBQRK9Abzq5wLBLbxXUqENR5A1SdAgAABAgQIECBAgAABAmsUiLnBJMLWGPnD2iwRdpifrQkQIECAAAECBAgQIECAAIEdArmHRe7YpbsIXCpgsvxLiaxAgAABAgQIECDQkoBfD2spWrvrenx8fPpre7sfdS8BAi0IlBgWaZL8Fo6E+uooEVZfTNSIAAECBAgQIEBgokAMkXFiNBGvos1u3LhRUW3qqUoc3zUkeqOXz1tvvVUPzAprcu3atepbnbs3WA3PheqDoII7BSTCdrK4kwABAgQIECBAgAABAvUJ1DAfUu4ER33qarSvgN5g+4pZv6SAOcJKatsXAQIECBAgQIAAAQIECBAgcJCA3mAH8a1+Y4mw1R8CAAgQIECAAAECBAgQIECgJYGah4DHsFm9Bls6mtZXV4mw9cVciwkQIECAAAECBAgQIECgUYHae0OVmD+u5kRgo4fVqqotEbaqcGssAQIECBAgQIAAAQIECBDIJ5C7N1jticB8skqeS0AibC5J5RAgQIAAAQIECBAgQIAAgYwCkQSquTeUSfIzBl/Rswn41cjZKBVEgMDaBGr41aa1me9qb4nu97v26z4CBOoV8LpQb2zUjACBwwRq//x5fHx8WAMv2VpvsEuAPDxKQCJsFJOVCBAgcFag9m/jzta271s3btwYnPT2G+M1Pdccy/Mcx/F64DVhHkulECBQl0C8J9acCCvx+ltz++s6WuatTa731aXiKRE27/GhNAIECBAgQGBGgaU+IM3YhNFFXbt2TQJntJYVCRAgsC6BFr4YypUsSZGOzwRr+lyQ2l3DZXxZl2O5devWIjGVCNuI5u13PhmufxXJBomrJwL37rzNgQABAgQWEljLB944ecg9nGShENotAQIzCsRrRa4T0n2qmTvhsU9d1rBuvBfWPC9YikHuSfLjCyMLgTkEZH02FG///p5E2IaHq8PwsSSYw4AAAQKLChwdHQ3xLXgsLZwE7IsVJ5Nx4uCkcl856xNYr4DXi3XFvoWeYBERk+Sv67hsvbUSYRsR/MHP/zK89M3Pbdzj6toFPvrJv6+dQPsJECCwuMD2N8w9JMQkwBY/rFSAAAEC1Qu0kgQLyO336rlx05dic5ervHUKPLLOZp/f6ldOkmEWAknAsMgk4ZIAgTUL1DI8MT5kx1/0EivxzXOOmEcCLIY11TIxfsQ25uewECBAgEA9Aum1uZUvfkq8J7diUc9RpCYXCUiEbelErzALgRD475c+HYpDgwABAmsXiA/kd+/evT9EsQaP1hJitSbAlpqktoZjSB0IECBQm0BKgHltPhsZvcHOerh1uIChkTsMo1eYIZI7YFZ010c/+TeT5K8o3ppKgMA4gfg2Nv7im9/cQyDG1ejToRhRl1qHj9Q4BLJWq7Extx4BAgTmEIikUw2Tr0c9YkmXc7StdBm1fCYo3W77a1dAImxH7KJX2C9OfkHyxZP5wvyK5A6gzu+KJNhHP/1R563UPAIECEwXkBC73K7GBFicZEUSrOWTrcvlrUGAAIFxApEEM9xunNVFaxkWeZGOx2oVkAg7JzLxC5K3X713mgzTO+wcpM7ulgDrLKCaQ4BAdoHNE4havg2OeizZQ0wCLPthZwcECBAgUJFA7vd/wyIrCnZHVZEIuySYeoddAtTJw5JgnQRSMwgQKC5QYzIsEDYTYnF7s55xe+5FAmxuUeURIECAQO0CeoPVHiH1O09AIuw8mY37U++w609dMVxyw6WHqxJgPURRGwgQqEEgEk3xV9P8YeGy/U313Amx2tqbjgXzgCUJlwQIECDQqoDeYK1Grv56+9XIPWIUCbFnXv1weOaHf95jK6vWKBAJsD9+6+vmAqsxOOpEgEDTApFoqu0XJgM09RA7Ojo6TdYdghy9v27cuDFEWduJtkPKnWPbOGkI/7kTfnPUTRkECBAg0JdA7vdAc1r2dbzU1BqJsAnRiITYlefeH+LXJS1tCUiAtRUvtSVAoF2BWhNiIRof3KckxFICLJJgcb2mJU4Wbt26JQFWU1DUhQABAh0L5B4WGe9rEmEdH0ALN83QyAMCYP6wA/AKb/rxnbeHe7/9lR5ghd3tjgABAps9k3J/c7yvdtQn/tLQi826bpZV4/xfqX5xkhD1d7KQRFwSIECAQAmB3O/p8aueFgK5BCTCDpQ1f9iBgAU2Nw9YAWS7IECAwAUCmwmm3B+cL6jGuQ+lOqWkWPoWuuYEWDQmeoBJgJ0bVg8QIECAQCaB3L3Botqbnx0yNUOxKxYwNHKm4Js/bCbIGYsxDHJGTEURIEBgBoH4UFvj/GGbTYtkWJr/q8YhkFHXNA+YJNhm5FwnQIAAgV4EUk/tXtqjHfUJSITNHBPzh80MOqE4CbAJaDYhQIBAQYEWEmIFOUbvKhJf5gEbzWVFAgQIEMgkkHpSZypeb7BcsMq9LyARdp9i3isxf1j8uuTtdz6Zt2ClnStwOgTy5NcgP/rpj85dxwMECBAgUI+AhNi4WKQEmKGQ47ysRYAAAQL5BHIPi9QbLF/slPxAwBxhDyxmv2b+sNlJzy3QPGDn0niAAAEC1QtEQiySPWlOruorXKiCYWIi/ELYdkOAAAECowRy9wYbVQkrEThQQCLsQMAxm0uIjVGato4E2DQ3WxEgQKA2gUj6xF8sx8fHp0mx2upYsj6RAIsEoWWaQDqWpm1tqxoEIjFuIUCgLoHcvcGitd776op5r7WRCCsY2ZQQe/GbnxteOvmzTBeQAJtuZ0sCvQk4WdovorUnCNIH4PiwvcZvnSM+eoHtd0xvrx2GMYzU0rZArT9W0baq2hOoW8CwyLrj01PtzBG2QDTNHzYdPRJg//3S98wDNp3QlgQIEGhCIBJitf/C5JyQKXljHrA5VZVFgAABAnMK5P6CKn0ZNmedlUVgl4AeYbtUCtyXeoddf+rKED3Ern9VKC5j1wvsMiGPE1ifQK+9wXpt15QjND4Ux1+vPcT0AJtyVNiGwLoF4nVj6cX71NIRKL//3MMi9QYrH9Oxe+zx+S77Mjb6mdaTELscVgLsciNrEFirQO5vJnt0vXbtWpPN6jEhZh6wJg9FlSawqEDqPbpoJU52fnR0tHQVDt5/zEdpGS/gM9d4q97WlAjrLaIVtSclxMwf9iAoEmAPLFwjQOBhgXhT7vGN+eGWumdTIA2baHlCfQmwzYi6ToAAAQK1C+TuDRYJ3vT+XrvFGuvXY9LYHGGVHckxf9iV594fbr/zSWU1K1edSID98VtfNw9YOXJ7ItCkQM/fTPb4gWPOgyw+LLc6l5YP+3MeCcrqWcAXHfVGt5fY+EJt/DGW+3NJq73Vxwu2u2YkQXt5zm9GQSJsU6Oi68+8+uHwzA//vLqEmF5gFR2EqkKgYoFe35QrJq+mavFhLH5NrtVflIv6x5CiOIZzf8NeTdBUhAABApUK9Pyl2lzkJRKGeoPNFa15y4nPKb0+R8wRNu+xMmtpabjkGibUlwCb9dBRGIFuBXp+Q94MWs5v3mqYZHmzrWOuJ4/4MJauj9mu5nXSB8u4TBMEOxGoOWLqVlJAkrik9v776uV1OFoebYnjLd4bW3x/3D96+2+RO97pPXD/mtkih0CKd0+fuXY5SYTtUqnsvpQQ63H+MAmwyg421RktEF3EfVAfzXXwiuGd3pgPLkwBzQhEzHv/IBbB2E6KOSFr5hBV0QwCa/nCIwNdkSJ7jE+8BsdfvPa2PEQv13tHeo/KdYAl/1zlK5fALgGJsF0qld4X84fF35v/+oXh+lfbDp0EWKUHmWqNFogTdImZ0VxWJDBKID2v1pz43DwhSN+S5zq5GRWURlfyRUV7gUtzEHlvrTd2EZvcSZElW5/eg5asw6H7jveLORevpXNqKqsmgbazKTVJFqxLzB/W6nDJj++8Pdz77a9MhF/weLErAgTaEsh9Ejj3h+QpuqmNcenk93zBdMKZLmPNiF/qsVAiliX2cb7AtEd6OJmd1nJbXSaQnjuXrefxswLxnIrXofTaffZRt3oWSO/RPbdR29YpIBHWaNzTcMmWEmJ6gTV6sKk2AQJFBZY80ehxyEvR4BXY2WaSZzNBlmvXrf46Zy4P5RJYi0C81sSPktS0RCJzyffImixK1YV3KWn7KS3gVyNLi8+8v0iIRQ+xV06GTNa6RALsj9/6ul5gtQZIvQgQWI1Ai717VhMcDSVAgMCKBbw/rTj4mr5qgaWe+7MmwmIyd8syAjF32JXn3q8qISYBtsyxsLnXz/+f/zt89urXNu9ynQCBCQIl36Rz9vIxLGhC8G1CgEA3AiVfy7tBq6gh4ldRMFSFQOMCsw6NfOkkERZD9SIpEz2VLOUFwv4X73wyRFJyqQn1IwEWy0c//VF5AHs8FYgE2JW/+0dJMMcDAQIECBAgQOBvAhIpdR4K6YdBLqud+F0m5HECbQks+ZyetUdYsEfy5c0XHv30lw1PkmKW8gJpuOQzP/xz8Z2necAkwYrT399hJME+/+3vSoLdF3GFwOECYz+kH7onc3EcKmh7AgQI7BYo9Tq+e+/unUtgyRPnudqgHAIEPhVYcqTC7ImwFNTNhFi6z2VZgdOEWKFkWPwa5H+/9D29wMqG+MzeIgH25Z/98jQJduYBNwgQaEYgdyLMCcS4QyGcWI2zshYBAgQOFXj++edHFyGhOZrKigSqF1jys1a2RFhSj4TYvR9/6XSoXrrPZTmBUsmwD06SYPdOkmGW8gISYOXN7XFdAj0lRZb8wNHCURM+8SuJ6c8JVwtRU0cC4wT2SbaMK9Facwh4nZ1DURkE2hRY8nNp9kRYCknMH/bmv37hdA6xdJ/LMgKRDMv5q5LRE8xSXiASYF985TU9wMrT2+PKBEp+SM85Uf7KwrZXczcTYJsfyuLE+e7du0PJY2CviluZAIFRAp7Do5gWWWnfBGW8RovnIqGyUwKzCiz9PC6WCAu1zeGSMam+pZxATKKfY4khkXqC5ZC9uEzzgF3s41ECcwnEB+7NxMhc5S5RTi/tmNMuTFLvr4t8NhNiS39wm7P9yiKwFoF9ky1rcVm6nVNfT8Vz6cjZP4HDBOK5v/TzeNZfjRzLEQmx6199dLh98uuGz7z64djNrHegQPQKi555cy4f/eTf5yxOWZcIpATYJat5mACBmQSmfkifsvubN29O2Wz0NktOSDq6koVWjLhG4uui5NeuqqQPbbFdzOemB98uJfcRqEug5Ot4XS2vvzbpNXVKTSOuXoOnyNmGAIEQKNojbJvc/GHbInlv5+gVpjdY3pil0s0DliRcEignMCVRUq529rSvQMQzen/FUMc4+do3Cba5v9g2yjBsclPFdQL1CUSy5JBkS30t6qdGhyYoD30d70dSSwi0JVDL6/KiibAUMvOHJYn8l9ELb64lhkVa8gqc9gA7mQvs89/+bt4dKZ0AgTMCKWly5s7MN3J/s31I4idz07MWn2IZSbAcBpsJsUNP7LJCKJzAygTi+S4JVmfQ5zoRzvW6XqeaWhFoX2Cu5/4cEosMjdxV8c3hktFzKSZ4t8wvEK5hbalfwDDI+mOkhv0KlE5oxDC73EuOJFDuOk8tP9oaMSzZ5nTCHZcxzDV3YnOqje0IrEUgkiSW+gTmPhGO8kq8h9YnqUYE2hKo7cuJKnqEbYYwkjRvvvDo8OLMc1lt7sN1AjULGAZZc3TUbQ0CS3zDnPtDfMmE0JLHSLQz4rdEDDfbrZfYpobrBMoKxOtADFu21CcwdxIsWpjiHWVbCBCoUyB9PqupdtV2DYrhkvEXE7znmNuqpiCoC4EQ0APMcUBgWYEl36SPj4+zNr7nifIjbnECFJe1Ldu9xCLOuZOetRmoD4GSAjkSLSXr3/O+cn9BkV5v9cbt+SjSthYFan1drjYRloIcybDrT105TYYZLplUXPYkEAmwWMwD1lNUtaU1gaXfpCVH9jtiak5+ndeSdJIWj8fQSUmx86TcT2B/gRZfE/ZvZZtblIzN5uushFibx4ta9yWw9OfrizSrT4RF5c0fdlEIPdaygF5gLUdP3XsQqOENOpIiuZcae0vt2+aSJ1P71m3f9TdP1lL8nbTtq2h9Ap8K1PA6LhYPCyz1mr35+hq18tr6cGzcQyC3QDz/oxdozUsTibAEmBJihksmEZetCkiAtRo59e5FoKYTp9zDIiNmLSbC0klUq/Uf+1xJJ21xGT0D409vsbF61lurQHp9aPG1reeYpXjEe2y6vlR7N19bfeGwVBTsd00C6Tlfw/N/jHtTibDUIPOHJQmXrQlIgOWPWHoRzr8ne2hJIM2RlT4Y11b3nMdtavuYNkc9SiTmtuuS6pgc0uX2er3fjnZvtj0lxlK7l4hN2neuy8325tqHctsX2HyNaOmYyVHXZFEiqmPqH/VJ66XLEnXbZx/pvT9dmo5gvF6tMR3fAmvmFGjh+X9e+z/z15PlvAdbuP/2O5+YP2yPQMWvcUYicY7l4ztvDx+85Bdaxlheufq14bNX/7d5wMZgWYcAAQIECBAgQIAAAQIECGQSaLJH2KZFGi4pIbap4npNAnqB1RQNdSFAgAABAgQIECBAgACBNQs0nwhLwUsJMfOHJRGXSwtIgC0dAfsnQIAAAQIECBAgQIAAAQJnBR45e7P9WzHs796PvzRcf+pK+43RgiYFIgH25Z/90jDIJqOn0gQIECBAgAABAgQIECDQs0B3ibAUrDdfeHR481+/ICGWQFxmF4h5wPQCy85sBwQIECBAgAABAgQIECBAYLJAN0Mjdwmk4ZLmD9ul4745BSTA5tRUFgECBAgQIECAAAECBAgQyCPQdSIskaWEmPnDkojLuQQkwOaSVA4BAgQIECBAgAABAgQIEMgv0O3QyF105g/bpeK+KQLmAZuiZhsCBAgQIECAAAECBAgQILCswKoSYYna/GFJwuUUAb3ApqjZhgABAgQIECBAgAABAgQILC+wiqGRu5jTcEnzh+3Scd8uAQmwXSruI0CAAAECBAgQIECAAAEC7QisNhGWQpQSYuYPSyIutwUkwLZF3CZAgAABAgQIECBAgAABAm0KrHJo5K5QmT9sl8q67zMP2Lrjr/UECBAgQIAAAQIECBAg0J+ARNhWTM0ftgWy0pt6ga008JpNgAABAgQIECBAgAABAl0LrH5o5K7opuGS5g/bpdP3fRJgfcdX6wgQIECAAAECBAgQIEBg3QISYRfEPyXEzB92AVInD0mAdRJIzSBAgAABAgQIECBAgAABAhcISIRdgJMeivnDrj91ZfjBz/8y3P79vXS3yw4EJMA6CKImECBAgAABAgQIECBAgACBkQLmCBsJFb3DzB82EquR1STBGgmUahIgQIAAAQIECBAgQIAAgZkE9AjbEzINl4z5w5559cM9t7Z6DQISYDVEQR0IECBAgAABAgQIECBAgEB5AT3CJppHQuzej780vHgybNLShkAkwL78s18On//2d9uosFoSIECAAAECBAgQIECAAAECswroEXYgp/nDDgQssHkkwK783T8On736tQJ7swsCBAgQIECAAAECBAgQIECgVgGJsBkiszlc0oT6M4DOWIRhkDNiKooAAQIECBAgQIAAAQIECDQuIBE2YwBTQuyVk1+XjISYZTkBCbDl7O2ZAAECBAgQIECAAAECBAjUKmCOsAyRieGS5g/LADuiSPOAjUCyCgECBAgQIECAAAECBAgQWKmAHmEZA2/+sIy4W0WbB2wLxE0CBAgQIECAAAECBAgQIEDgIQGJsIdI5r0jDZe8/c4np8Mlb//+3rw7UNpgGKSDgAABAgQIECBAgAABAgQIEBgjIBE2RmmGdVJCzPxhM2D+rQgJsPkslUSAAAECBAgQIECAAAECBNYgYI6wwlFO84ddf+pK4T33szvzgPUTSy0hQIAAAQIECBAgQIAAAQIlBfQIK6m9sa83X3h0MFxyA2TEVfOAjUCyCgECBAgQIECAAAECBAgQIHCugETYuTT5H0jDJSXELrc2DPJyI2sQIECAAAECBAgQIECAAAECFwtIhF3sU+TRlBAzf9jD3BJgD5u4hwABAgQIECBAgAABAgQIEJgmIBE2zS3LVjF/WMwd9oOf/2VY+69LSoBlOcQUSoAAAQIECBAgQIAAAQIEVi0gEVZZ+FPvsLUOlzQPWGUHpOoQIECAAAECBAgQIECAAIGOBCTCKg3mZkLsmVc/rLSW81ZLL7B5PZVGgAABAgQIECBAgAABAgQInBV45OxNt2oTiITYvR9/aXjxZNhkr0skwL78s18On//2d3ttonYRIECAAAECBAgQIECAAAECFQjoEVZBEMZUocf5w/QAGxN56xAgQIAAAQIECBAgQIAAAQJzCUiEzSVZoJzN4ZItT6gfCbBY9AArcNDYBQECBAgQIECAAAECBAgQIHBfQCLsPkU7V1JC7JWTX5eMhFhLi15gLUVLXQkQIECAAAECBAgQIECAQF8C5ghrOJ4xXDLmD7v+1JXqW2EesOpDpIIECBAgQIAAAQIECBAgQKB7AT3COgjxmy88Otx+55PT3mG3f3+vqhbpAVZVOFSGAAECBAgQIECAAAECBAisWkAirJPwp+GStSTEzAPWyYGlGQQIECBAgAABAgQIECBAoCMBibCOghlNSQmxJecP0wuss4NKcwgQIECAAAECBAgQIECAQCcCEmGdBHK7GTF/WMwdVvLXJSXAtqPgNgECBAgQIECAAAECBAgQIFCTgERYTdGYuS6pd1ju4ZISYDMHTnEECBAgQIAAAQIECBAgQIBAFoHP/PVkyVKyQqsTiIRYTKYfvcXmWj76yb8Nn//2d+cqTjkECBAgQIAAAQIECBAgQIAAgWwCEmHZaBVMgAABAgQIECBAgAABAgQIECBQk8AjNVVGXQgQIECAAAECBAgQIECAAAECBAjkEpAIyyWrXAIECBAgQIAAAQIECBAgQIAAgaoEJMKqCofKECBAgAABAgQIECBAgAABAgQI5BKQCMslq1wCBAgQIECAAAECBAgQIECAAIGqBCTCqgqHyhAgQIAAAQIECBAgQIAAAQIECOQSkAjLJatcAgQIECBAgAABAgQIECBAgACBqgQkwqoKh8oQIECAAAECBAgQIECAAAECBAjkEpAIyyWrXAIECBAgQIAAAQIECBAgQIAAgaoEJMKqCofKECBAgAABAgQIECBAgAABAgQI5BKQCMslq1wCBAgQIECAAAECBAgQIECAAIGqBCTCqgqHyhAgQIAAAQIECBAgQIAAAQIECOQSkAjLJatcAgQIECBAgAABAgQIECBAgACBqgQkwqoKh8oQIECAAAECBAgQIECAAAECBAjkEpAIyyWrXAIECBAgQIAAAQIECBAgQIAAgaoEJMKqCofKECBAgAABAgQIECBAgAABAgQI5BKQCMslq1wCBAgQIECAAAECBAgQIECAAIGqBCTCqgqHyhAgQIAAAQIECBAgQIAAAQIECOQS+P/ZKWnp7oeuKgAAAABJRU5ErkJggg==;" vertex="1" parent="1">
          <mxGeometry x="398" y="106.56" width="130" height="31.17" as="geometry" />
        </mxCell>
      </root>
    </mxGraphModel>
  </diagram>
</mxfile>
